Nobile-KM.ufo
<glyph name="exclam" format="1">
  <advance width="720"></advance>
  <unicode hex="0021"></unicode>
  <outline>
    <contour>
      <point x="460" y="-16" type="line"></point>
      <point x="460" y="186" type="line"></point>
      <point x="251" y="186" type="line"></point>
      <point x="251" y="-16" type="line"></point>
    </contour>
    <contour>
      <point x="447" y="399" type="line"></point>
      <point x="447" y="1579" type="line"></point>
      <point x="273" y="1579" type="line"></point>
      <point x="273" y="399" type="line"></point>
    </contour>
  </outline>
</glyph>
<glyph name="quotedbl" format="1">
  <advance width="876"></advance>
  <unicode hex="0022"></unicode>
  <outline>
    <contour>
      <point x="209" y="1058" type="line"></point>
      <point x="317" y="1058" type="line"></point>
      <point x="377" y="1508" type="line" smooth="yes"></point>
      <point x="380" y="1529"></point>
      <point x="377" y="1557"></point>
      <point x="377" y="1579" type="curve"></point>
      <point x="149" y="1579" type="line"></point>
      <point x="149" y="1557"></point>
      <point x="146" y="1529"></point>
      <point x="149" y="1508" type="curve" smooth="yes"></point>
    </contour>
    <contour>
      <point x="547" y="1058" type="line"></point>
      <point x="655" y="1058" type="line"></point>
      <point x="715" y="1508" type="line" smooth="yes"></point>
      <point x="718" y="1529"></point>
      <point x="715" y="1557"></point>
      <point x="715" y="1579" type="curve"></point>
      <point x="487" y="1579" type="line"></point>
      <point x="487" y="1557"></point>
      <point x="484" y="1529"></point>
      <point x="487" y="1508" type="curve" smooth="yes"></point>
    </contour>
  </outline>
</glyph>
<glyph name="parenleft" format="1">
  <advance width="852"></advance>
  <unicode hex="0028"></unicode>
  <outline>
    <contour>
      <point x="591" y="-205" type="curve"></point>
      <point x="674" y="-97" type="line"></point>
      <point x="467" y="64"></point>
      <point x="388" y="450"></point>
      <point x="388" y="694" type="curve" smooth="yes"></point>
      <point x="388" y="965"></point>
      <point x="479" y="1307"></point>
      <point x="690" y="1493" type="curve"></point>
      <point x="579" y="1595" type="line"></point>
      <point x="316" y="1406"></point>
      <point x="202" y="1003"></point>
      <point x="202" y="696" type="curve" smooth="yes"></point>
      <point x="202" y="392"></point>
      <point x="316" y="-30"></point>
    </contour>
  </outline>
</glyph>
<glyph name="parenright" format="1">
  <advance width="864"></advance>
  <unicode hex="0029"></unicode>
  <outline>
    <contour>
      <point x="261" y="-205" type="line"></point>
      <point x="545" y="-7"></point>
      <point x="650" y="382"></point>
      <point x="650" y="710" type="curve" smooth="yes"></point>
      <point x="650" y="1021"></point>
      <point x="532" y="1413"></point>
      <point x="261" y="1599" type="curve"></point>
      <point x="178" y="1491" type="line"></point>
      <point x="384" y="1319"></point>
      <point x="463" y="947"></point>
      <point x="463" y="694" type="curve" smooth="yes"></point>
      <point x="463" y="430"></point>
      <point x="370" y="81"></point>
      <point x="161" y="-99" type="curve"></point>
    </contour>
  </outline>
</glyph>
<glyph name="asterisk" format="1">
  <advance width="924"/>
  <unicode hex="002A"/>
  <outline>
    <contour>
      <point x="612" y="814" type="line"/>
      <point x="714" y="868" type="line"/>
      <point x="537" y="1144" type="line"/>
      <point x="843" y="1137" type="line"/>
      <point x="843" y="1241" type="line"/>
      <point x="535" y="1234" type="line"/>
      <point x="700" y="1509" type="line"/>
      <point x="597" y="1561" type="line"/>
      <point x="458" y="1283" type="line"/>
      <point x="319" y="1561" type="line"/>
      <point x="216" y="1509" type="line"/>
      <point x="379" y="1234" type="line"/>
      <point x="73" y="1241" type="line"/>
      <point x="73" y="1137" type="line"/>
      <point x="377" y="1144" type="line"/>
      <point x="202" y="868" type="line"/>
      <point x="304" y="814" type="line"/>
      <point x="458" y="1095" type="line"/>
    </contour>
  </outline>
</glyph>
<glyph name="hyphen" format="1">
  <advance width="996"></advance>
  <unicode hex="002D"></unicode>
  <outline>
    <contour>
      <point x="160" y="508" type="line"></point>
      <point x="836" y="508" type="line"></point>
      <point x="836" y="665" type="line"></point>
      <point x="160" y="665" type="line"></point>
    </contour>
  </outline>
</glyph>
<glyph name="slash" format="1">
  <advance width="996"></advance>
  <unicode hex="002F"></unicode>
  <outline>
    <contour>
      <point x="283" y="-179" type="line"></point>
      <point x="907" y="1669" type="line"></point>
      <point x="738" y="1731" type="line"></point>
      <point x="113" y="-117" type="line"></point>
    </contour>
  </outline>
</glyph>
<glyph name="zero" format="1">
  <advance width="1356"></advance>
  <unicode hex="0030"></unicode>
  <outline>
    <contour>
      <point x="672" y="111" type="curve" smooth="yes"></point>
      <point x="386" y="111"></point>
      <point x="291" y="336"></point>
      <point x="291" y="592" type="curve" smooth="yes"></point>
      <point x="291" y="846"></point>
      <point x="382" y="1069"></point>
      <point x="672" y="1069" type="curve" smooth="yes"></point>
      <point x="953" y="1069"></point>
      <point x="1057" y="857"></point>
      <point x="1057" y="606" type="curve" smooth="yes"></point>
      <point x="1057" y="348"></point>
      <point x="972" y="111"></point>
    </contour>
    <contour>
      <point x="672" y="-31" type="curve" smooth="yes"></point>
      <point x="1042" y="-31"></point>
      <point x="1243" y="238"></point>
      <point x="1243" y="590" type="curve" smooth="yes"></point>
      <point x="1243" y="942"></point>
      <point x="1044" y="1210"></point>
      <point x="672" y="1210" type="curve" smooth="yes"></point>
      <point x="298" y="1210"></point>
      <point x="105" y="945"></point>
      <point x="105" y="590" type="curve" smooth="yes"></point>
      <point x="105" y="244"></point>
      <point x="305" y="-31"></point>
    </contour>
  </outline>
</glyph>
<glyph name="three" format="1">
  <advance width="1176"></advance>
  <unicode hex="0033"></unicode>
  <outline>
    <contour>
      <point x="552" y="-198" type="curve" smooth="yes"></point>
      <point x="773" y="-198"></point>
      <point x="1020" y="-88"></point>
      <point x="1020" y="166" type="curve" smooth="yes"></point>
      <point x="1020" y="377"></point>
      <point x="890" y="504"></point>
      <point x="692" y="545" type="curve"></point>
      <point x="864" y="546"></point>
      <point x="981" y="704"></point>
      <point x="981" y="866" type="curve" smooth="yes"></point>
      <point x="981" y="1121"></point>
      <point x="751" y="1206"></point>
      <point x="533" y="1206" type="curve" smooth="yes"></point>
      <point x="419" y="1206"></point>
      <point x="285" y="1172"></point>
      <point x="180" y="1125" type="curve"></point>
      <point x="230" y="992" type="line"></point>
      <point x="323" y="1037"></point>
      <point x="423" y="1063"></point>
      <point x="527" y="1063" type="curve" smooth="yes"></point>
      <point x="682" y="1063"></point>
      <point x="816" y="1022"></point>
      <point x="816" y="843" type="curve" smooth="yes"></point>
      <point x="816" y="664"></point>
      <point x="654" y="614"></point>
      <point x="504" y="614" type="curve"></point>
      <point x="504" y="471" type="line"></point>
      <point x="676" y="452"></point>
      <point x="840" y="384"></point>
      <point x="840" y="186" type="curve" smooth="yes"></point>
      <point x="840" y="9"></point>
      <point x="720" y="-59"></point>
      <point x="556" y="-59" type="curve" smooth="yes"></point>
      <point x="442" y="-59"></point>
      <point x="302" y="-23"></point>
      <point x="201" y="31" type="curve"></point>
      <point x="147" y="-102" type="line"></point>
      <point x="272" y="-163"></point>
      <point x="412" y="-198"></point>
    </contour>
  </outline>
</glyph>
<glyph name="seven" format="1">
  <advance width="1152"></advance>
  <unicode hex="0037"></unicode>
  <outline>
    <contour>
      <point x="455" y="-176" type="line"></point>
      <point x="1027" y="1107" type="line"></point>
      <point x="970" y="1229" type="line"></point>
      <point x="134" y="1229" type="line"></point>
      <point x="134" y="1074" type="line"></point>
      <point x="812" y="1074" type="line"></point>
      <point x="287" y="-100" type="line"></point>
    </contour>
  </outline>
</glyph>
<glyph name="eight" format="1">
  <advance width="1284"></advance>
  <unicode hex="0038"></unicode>
  <outline>
    <contour>
      <point x="640" y="-148" type="curve" smooth="yes"></point>
      <point x="882" y="-148"></point>
      <point x="1107" y="-41"></point>
      <point x="1107" y="231" type="curve" smooth="yes"></point>
      <point x="1107" y="416"></point>
      <point x="1031" y="576"></point>
      <point x="845" y="634" type="curve"></point>
      <point x="1000" y="687"></point>
      <point x="1107" y="795"></point>
      <point x="1107" y="966" type="curve" smooth="yes"></point>
      <point x="1107" y="1227"></point>
      <point x="869" y="1334"></point>
      <point x="640" y="1334" type="curve" smooth="yes"></point>
      <point x="413" y="1334"></point>
      <point x="161" y="1231"></point>
      <point x="161" y="968" type="curve" smooth="yes"></point>
      <point x="161" y="798"></point>
      <point x="268" y="687"></point>
      <point x="423" y="636" type="curve"></point>
      <point x="237" y="578"></point>
      <point x="161" y="418"></point>
      <point x="161" y="233" type="curve" smooth="yes"></point>
      <point x="161" y="-41"></point>
      <point x="399" y="-148"></point>
    </contour>
    <contour>
      <point x="640" y="-9" type="curve" smooth="yes"></point>
      <point x="450" y="-9"></point>
      <point x="339" y="54"></point>
      <point x="339" y="255" type="curve" smooth="yes"></point>
      <point x="339" y="430"></point>
      <point x="459" y="575"></point>
      <point x="640" y="575" type="curve" smooth="yes"></point>
      <point x="819" y="575"></point>
      <point x="929" y="422"></point>
      <point x="929" y="253" type="curve" smooth="yes"></point>
      <point x="929" y="54"></point>
      <point x="832" y="-9"></point>
    </contour>
    <contour>
      <point x="640" y="691" type="curve" smooth="yes"></point>
      <point x="486" y="691"></point>
      <point x="339" y="805"></point>
      <point x="339" y="966" type="curve" smooth="yes"></point>
      <point x="339" y="1145"></point>
      <point x="486" y="1199"></point>
      <point x="640" y="1199" type="curve" smooth="yes"></point>
      <point x="796" y="1199"></point>
      <point x="929" y="1140"></point>
      <point x="929" y="964" type="curve" smooth="yes"></point>
      <point x="929" y="806"></point>
      <point x="793" y="691"></point>
    </contour>
  </outline>
</glyph>
<glyph name="nine" format="1">
  <advance width="1308"></advance>
  <unicode hex="0039"></unicode>
  <outline>
    <contour>
      <point x="444" y="-161" type="line"></point>
      <point x="882" y="-59"></point>
      <point x="1159" y="280"></point>
      <point x="1159" y="733" type="curve" smooth="yes"></point>
      <point x="1159" y="1059"></point>
      <point x="1007" y="1314"></point>
      <point x="654" y="1314" type="curve" smooth="yes"></point>
      <point x="359" y="1314"></point>
      <point x="154" y="1120"></point>
      <point x="154" y="823" type="curve" smooth="yes"></point>
      <point x="154" y="544"></point>
      <point x="344" y="365"></point>
      <point x="620" y="365" type="curve" smooth="yes"></point>
      <point x="751" y="365"></point>
      <point x="875" y="406"></point>
      <point x="961" y="509" type="curve"></point>
      <point x="909" y="229"></point>
      <point x="671" y="39"></point>
      <point x="401" y="-16" type="curve"></point>
    </contour>
    <contour>
      <point x="620" y="501" type="curve" smooth="yes"></point>
      <point x="429" y="501"></point>
      <point x="330" y="642"></point>
      <point x="330" y="823" type="curve" smooth="yes"></point>
      <point x="330" y="1020"></point>
      <point x="447" y="1172"></point>
      <point x="654" y="1172" type="curve" smooth="yes"></point>
      <point x="904" y="1172"></point>
      <point x="981" y="974"></point>
      <point x="981" y="757" type="curve" smooth="yes"></point>
      <point x="981" y="716"></point>
      <point x="981" y="675"></point>
      <point x="975" y="635" type="curve"></point>
      <point x="908" y="556"></point>
      <point x="719" y="501"></point>
    </contour>
  </outline>
</glyph>
<glyph name="colon" format="1">
  <advance width="720"></advance>
  <unicode hex="003A"></unicode>
  <outline>
    <contour>
      <point x="221" y="0" type="line"></point>
      <point x="491" y="0" type="line"></point>
      <point x="491" y="281" type="line"></point>
      <point x="221" y="281" type="line"></point>
    </contour>
    <contour>
      <point x="221" y="583" type="line"></point>
      <point x="491" y="583" type="line"></point>
      <point x="491" y="864" type="line"></point>
      <point x="221" y="864" type="line"></point>
    </contour>
  </outline>
</glyph>
<glyph name="less" format="1">
  <advance width="972"></advance>
  <unicode hex="003C"></unicode>
  <outline>
    <contour>
      <point x="753" y="60" type="line"></point>
      <point x="855" y="170" type="line"></point>
      <point x="304" y="663" type="line"></point>
      <point x="855" y="1156" type="line"></point>
      <point x="753" y="1266" type="line"></point>
      <point x="98" y="663" type="line"></point>
    </contour>
  </outline>
</glyph>
<glyph name="equal" format="1">
  <advance width="936"></advance>
  <unicode hex="003D"></unicode>
  <outline>
    <contour>
      <point x="173" y="280" type="line"></point>
      <point x="761" y="280" type="line"></point>
      <point x="761" y="411" type="line"></point>
      <point x="173" y="411" type="line"></point>
    </contour>
    <contour>
      <point x="173" y="508" type="line"></point>
      <point x="761" y="508" type="line"></point>
      <point x="761" y="639" type="line"></point>
      <point x="173" y="639" type="line"></point>
    </contour>
  </outline>
</glyph>
<glyph name="greater" format="1">
  <advance width="972"></advance>
  <unicode hex="003E"></unicode>
  <outline>
    <contour>
      <point x="213" y="60" type="line"></point>
      <point x="868" y="663" type="line"></point>
      <point x="213" y="1266" type="line"></point>
      <point x="111" y="1156" type="line"></point>
      <point x="662" y="663" type="line"></point>
      <point x="111" y="170" type="line"></point>
    </contour>
  </outline>
</glyph>
<glyph name="question" format="1">
  <advance width="1104"></advance>
  <unicode hex="003F"></unicode>
  <outline>
    <contour>
      <point x="247" y="292" type="line"></point>
      <point x="427" y="292" type="line"></point>
      <point x="427" y="675" type="line"></point>
      <point x="688" y="767"></point>
      <point x="961" y="896"></point>
      <point x="961" y="1216" type="curve" smooth="yes"></point>
      <point x="961" y="1499"></point>
      <point x="719" y="1579"></point>
      <point x="478" y="1579" type="curve" smooth="yes"></point>
      <point x="350" y="1579"></point>
      <point x="185" y="1540"></point>
      <point x="72" y="1475" type="curve"></point>
      <point x="131" y="1332" type="line"></point>
      <point x="220" y="1388"></point>
      <point x="356" y="1418"></point>
      <point x="459" y="1418" type="curve" smooth="yes"></point>
      <point x="622" y="1418"></point>
      <point x="770" y="1392"></point>
      <point x="770" y="1197" type="curve" smooth="yes"></point>
      <point x="770" y="947"></point>
      <point x="437" y="841"></point>
      <point x="247" y="777" type="curve"></point>
    </contour>
    <contour>
      <point x="328" y="-40" type="curve" smooth="yes"></point>
      <point x="385" y="-40"></point>
      <point x="433" y="7"></point>
      <point x="433" y="64" type="curve" smooth="yes"></point>
      <point x="433" y="118"></point>
      <point x="387" y="169"></point>
      <point x="332" y="169" type="curve" smooth="yes"></point>
      <point x="278" y="169"></point>
      <point x="224" y="127"></point>
      <point x="224" y="70" type="curve" smooth="yes"></point>
      <point x="224" y="12"></point>
      <point x="268" y="-40"></point>
    </contour>
  </outline>
</glyph>
<glyph name="at" format="1">
  <advance width="1740"/>
  <unicode hex="0040"/>
  <outline>
    <contour>
      <point x="928" y="-26" type="curve" smooth="yes"/>
      <point x="1050" y="-26"/>
      <point x="1247" y="10"/>
      <point x="1366" y="53" type="curve"/>
      <point x="1323" y="180" type="line"/>
      <point x="1226" y="139"/>
      <point x="1066" y="101"/>
      <point x="941" y="101" type="curve" smooth="yes"/>
      <point x="553" y="101"/>
      <point x="250" y="321"/>
      <point x="259" y="740" type="curve" smooth="yes"/>
      <point x="269" y="1166"/>
      <point x="547" y="1459"/>
      <point x="986" y="1459" type="curve" smooth="yes"/>
      <point x="1351" y="1459"/>
      <point x="1618" y="1287"/>
      <point x="1618" y="887" type="curve" smooth="yes"/>
      <point x="1618" y="665"/>
      <point x="1500" y="440"/>
      <point x="1401" y="440" type="curve" smooth="yes"/>
      <point x="1372" y="440"/>
      <point x="1345" y="465"/>
      <point x="1348" y="515" type="curve"/>
      <point x="1389" y="1118" type="line"/>
      <point x="1397" y="1198"/>
      <point x="1309" y="1258"/>
      <point x="1063" y="1257" type="curve" smooth="yes"/>
      <point x="776" y="1256"/>
      <point x="506" y="1048"/>
      <point x="475" y="717" type="curve" smooth="yes"/>
      <point x="453" y="488"/>
      <point x="563" y="327"/>
      <point x="801" y="328" type="curve" smooth="yes"/>
      <point x="1014" y="329"/>
      <point x="1181" y="484"/>
      <point x="1246" y="738" type="curve"/>
      <point x="1246" y="690"/>
      <point x="1244" y="543"/>
      <point x="1244" y="488" type="curve" smooth="yes"/>
      <point x="1244" y="383"/>
      <point x="1294" y="328"/>
      <point x="1383" y="328" type="curve" smooth="yes"/>
      <point x="1563" y="328"/>
      <point x="1753" y="555"/>
      <point x="1753" y="886" type="curve" smooth="yes"/>
      <point x="1753" y="1360"/>
      <point x="1417" y="1585"/>
      <point x="981" y="1585" type="curve" smooth="yes"/>
      <point x="480" y="1585"/>
      <point x="121" y="1234"/>
      <point x="110" y="740" type="curve" smooth="yes"/>
      <point x="99" y="240"/>
      <point x="460" y="-26"/>
    </contour>
    <contour>
      <point x="824" y="449" type="curve" smooth="yes"/>
      <point x="666" y="448"/>
      <point x="602" y="566"/>
      <point x="617" y="717" type="curve" smooth="yes"/>
      <point x="640" y="958"/>
      <point x="825" y="1150"/>
      <point x="1068" y="1150" type="curve" smooth="yes"/>
      <point x="1127" y="1151"/>
      <point x="1187" y="1145"/>
      <point x="1243" y="1133" type="curve"/>
      <point x="1216" y="880"/>
      <point x="1164" y="450"/>
    </contour>
  </outline>
</glyph>
<glyph name="A" format="1">
  <advance width="1416"/>
  <unicode hex="0041"/>
  <outline>
    <contour>
      <point x="1020" y="485" type="line"/>
      <point x="386" y="485" type="line"/>
      <point x="703" y="1460" type="line"/>
    </contour>
    <contour>
      <point x="230" y="0" type="line"/>
      <point x="353" y="383" type="line"/>
      <point x="1053" y="383" type="line"/>
      <point x="1176" y="0" type="line"/>
      <point x="1369" y="0" type="line"/>
      <point x="853" y="1579" type="line"/>
      <point x="553" y="1579" type="line"/>
      <point x="37" y="0" type="line"/>
    </contour>
  </outline>
</glyph>
<glyph name="B" format="1">
  <advance width="1440"/>
  <unicode hex="0042"/>
  <outline>
    <contour>
      <point x="182" y="0" type="line"/>
      <point x="602" y="0" type="line" smooth="yes"/>
      <point x="903" y="0"/>
      <point x="1302" y="46"/>
      <point x="1302" y="434" type="curve" smooth="yes"/>
      <point x="1302" y="699"/>
      <point x="1142" y="829"/>
      <point x="886" y="858" type="curve"/>
      <point x="1088" y="888"/>
      <point x="1220" y="976"/>
      <point x="1220" y="1188" type="curve" smooth="yes"/>
      <point x="1220" y="1570"/>
      <point x="842" y="1579"/>
      <point x="543" y="1579" type="curve" smooth="yes"/>
      <point x="182" y="1579" type="line"/>
    </contour>
    <contour>
      <point x="376" y="143" type="line"/>
      <point x="376" y="784" type="line"/>
      <point x="639" y="784" type="line" smooth="yes"/>
      <point x="877" y="784"/>
      <point x="1120" y="759"/>
      <point x="1120" y="466" type="curve" smooth="yes"/>
      <point x="1120" y="152"/>
      <point x="851" y="143"/>
      <point x="602" y="143" type="curve" smooth="yes"/>
    </contour>
    <contour>
      <point x="376" y="913" type="line"/>
      <point x="376" y="1436" type="line"/>
      <point x="547" y="1436" type="line" smooth="yes"/>
      <point x="737" y="1436"/>
      <point x="1055" y="1450"/>
      <point x="1055" y="1188" type="curve" smooth="yes"/>
      <point x="1055" y="935"/>
      <point x="842" y="913"/>
      <point x="635" y="913" type="curve" smooth="yes"/>
    </contour>
  </outline>
</glyph>
<glyph name="C" format="1">
  <advance width="1392"/>
  <unicode hex="0043"/>
  <outline>
    <contour>
      <point x="838" y="-20" type="curve" smooth="yes"/>
      <point x="1006" y="-20"/>
      <point x="1148" y="34"/>
      <point x="1271" y="110" type="curve"/>
      <point x="1208" y="241" type="line"/>
      <point x="1108" y="181"/>
      <point x="977" y="132"/>
      <point x="846" y="132" type="curve" smooth="yes"/>
      <point x="452" y="132"/>
      <point x="348" y="452"/>
      <point x="348" y="784" type="curve" smooth="yes"/>
      <point x="348" y="1119"/>
      <point x="463" y="1447"/>
      <point x="854" y="1447" type="curve" smooth="yes"/>
      <point x="984" y="1447"/>
      <point x="1108" y="1397"/>
      <point x="1182" y="1352" type="curve"/>
      <point x="1242" y="1482" type="line"/>
      <point x="1157" y="1538"/>
      <point x="1026" y="1599"/>
      <point x="854" y="1599" type="curve" smooth="yes"/>
      <point x="358" y="1599"/>
      <point x="154" y="1252"/>
      <point x="154" y="788" type="curve" smooth="yes"/>
      <point x="154" y="348"/>
      <point x="334" y="-20"/>
    </contour>
  </outline>
</glyph>
<glyph name="D" format="1">
  <advance width="1560"/>
  <unicode hex="0044"/>
  <outline>
    <contour>
      <point x="383" y="143" type="line"/>
      <point x="383" y="1436" type="line"/>
      <point x="722" y="1436" type="line" smooth="yes"/>
      <point x="1111" y="1436"/>
      <point x="1201" y="1111"/>
      <point x="1201" y="789" type="curve" smooth="yes"/>
      <point x="1201" y="465"/>
      <point x="1115" y="143"/>
      <point x="722" y="143" type="curve" smooth="yes"/>
    </contour>
    <contour>
      <point x="189" y="0" type="line"/>
      <point x="722" y="0" type="line" smooth="yes"/>
      <point x="1218" y="0"/>
      <point x="1395" y="338"/>
      <point x="1395" y="788" type="curve" smooth="yes"/>
      <point x="1395" y="1238"/>
      <point x="1219" y="1579"/>
      <point x="722" y="1579" type="curve" smooth="yes"/>
      <point x="189" y="1579" type="line"/>
    </contour>
  </outline>
</glyph>
<glyph name="E" format="1">
  <advance width="1284"/>
  <unicode hex="0045"/>
  <outline>
    <contour>
      <point x="1147" y="1437" type="line"/>
      <point x="1147" y="1580" type="line"/>
      <point x="294" y="1580" type="line"/>
      <point x="294" y="1580"/>
      <point x="294" y="1437"/>
      <point x="294" y="1437" type="curve"/>
    </contour>
    <contour>
      <point x="1036" y="768" type="line"/>
      <point x="1036" y="894" type="line"/>
      <point x="294" y="894" type="line"/>
      <point x="294" y="894"/>
      <point x="294" y="768"/>
      <point x="294" y="768" type="curve"/>
    </contour>
    <contour>
      <point x="1134" y="0" type="line"/>
      <point x="1134" y="143" type="line"/>
      <point x="294" y="143" type="line"/>
      <point x="294" y="143"/>
      <point x="294" y="0"/>
      <point x="294" y="0" type="curve"/>
    </contour>
    <component base="uc_main_stem"/>
  </outline>
</glyph>
<glyph name="F" format="1">
  <advance width="1236"/>
  <unicode hex="0046"/>
  <outline>
    <contour>
      <point x="196" y="0" type="line"/>
      <point x="392" y="0" type="line"/>
      <point x="392" y="762" type="line"/>
      <point x="1047" y="762" type="line"/>
      <point x="1047" y="879" type="line"/>
      <point x="392" y="879" type="line"/>
      <point x="392" y="1436" type="line"/>
      <point x="1108" y="1436" type="line"/>
      <point x="1108" y="1579" type="line"/>
      <point x="196" y="1579" type="line"/>
    </contour>
  </outline>
</glyph>
<glyph name="G" format="1">
  <advance width="1572"/>
  <unicode hex="0047"/>
  <outline>
    <contour>
      <point x="778" y="-41" type="curve" smooth="yes"/>
      <point x="958" y="-41"/>
      <point x="1195" y="10"/>
      <point x="1245" y="213" type="curve"/>
      <point x="1298" y="0" type="line"/>
      <point x="1386" y="0" type="line"/>
      <point x="1386" y="811" type="line"/>
      <point x="799" y="811" type="line"/>
      <point x="799" y="684" type="line"/>
      <point x="1201" y="684" type="line"/>
      <point x="1201" y="399" type="line" smooth="yes"/>
      <point x="1201" y="183"/>
      <point x="1011" y="111"/>
      <point x="825" y="111" type="curve" smooth="yes"/>
      <point x="420" y="111"/>
      <point x="341" y="449"/>
      <point x="341" y="782" type="curve" smooth="yes"/>
      <point x="341" y="1112"/>
      <point x="437" y="1458"/>
      <point x="840" y="1458" type="curve" smooth="yes"/>
      <point x="959" y="1458"/>
      <point x="1112" y="1422"/>
      <point x="1206" y="1343" type="curve"/>
      <point x="1273" y="1476" type="line"/>
      <point x="1137" y="1562"/>
      <point x="1006" y="1610"/>
      <point x="842" y="1610" type="curve" smooth="yes"/>
      <point x="343" y="1610"/>
      <point x="147" y="1243"/>
      <point x="147" y="786" type="curve" smooth="yes"/>
      <point x="147" y="388"/>
      <point x="317" y="-41"/>
    </contour>
  </outline>
</glyph>
<glyph name="H" format="1">
  <advance width="1608"/>
  <unicode hex="0048"/>
  <outline>
    <contour>
      <point x="1321" y="751" type="line"/>
      <point x="1321" y="751"/>
      <point x="1321" y="894"/>
      <point x="1321" y="894" type="curve"/>
      <point x="294" y="894" type="line"/>
      <point x="294" y="894"/>
      <point x="294" y="751"/>
      <point x="294" y="751" type="curve"/>
    </contour>
    <component base="uc_main_stem" xOffset="1026"/>
    <component base="uc_main_stem"/>
  </outline>
</glyph>
<glyph name="I" format="1">
  <advance width="1020"/>
  <unicode hex="0049"/>
  <outline>
    <contour>
      <point x="209" y="0" type="line"/>
      <point x="802" y="0" type="line"/>
      <point x="802" y="112" type="line"/>
      <point x="596" y="112" type="line"/>
      <point x="596" y="1461" type="line"/>
      <point x="802" y="1461" type="line"/>
      <point x="802" y="1579" type="line"/>
      <point x="209" y="1579" type="line"/>
      <point x="209" y="1461" type="line"/>
      <point x="413" y="1461" type="line"/>
      <point x="413" y="112" type="line"/>
      <point x="209" y="112" type="line"/>
    </contour>
  </outline>
</glyph>
<glyph name="J" format="1">
  <advance width="816"/>
  <unicode hex="004A"/>
  <outline>
    <contour>
      <point x="126" y="-90" type="line"/>
      <point x="534" y="-90"/>
      <point x="593" y="168"/>
      <point x="593" y="514" type="curve" smooth="yes"/>
      <point x="593" y="1579" type="line"/>
      <point x="401" y="1579" type="line"/>
      <point x="401" y="479" type="line" smooth="yes"/>
      <point x="401" y="203"/>
      <point x="387" y="83"/>
      <point x="79" y="37" type="curve"/>
    </contour>
  </outline>
</glyph>
<glyph name="K" format="1">
  <advance width="1356"/>
  <unicode hex="004B"/>
  <outline>
    <contour>
      <point x="182" y="0" type="line"/>
      <point x="376" y="0" type="line"/>
      <point x="376" y="747" type="line"/>
      <point x="419" y="747" type="line"/>
      <point x="1097" y="0" type="line"/>
      <point x="1330" y="0" type="line"/>
      <point x="588" y="815" type="line"/>
      <point x="1282" y="1579" type="line"/>
      <point x="1071" y="1579" type="line"/>
      <point x="409" y="876" type="line"/>
      <point x="376" y="876" type="line"/>
      <point x="376" y="1579" type="line"/>
      <point x="182" y="1579" type="line"/>
    </contour>
  </outline>
</glyph>
<glyph name="M" format="1">
  <advance width="1920"/>
  <unicode hex="004D"/>
  <outline>
    <contour>
      <point x="189" y="0" type="line"/>
      <point x="363" y="0" type="line"/>
      <point x="363" y="1399" type="line"/>
      <point x="867" y="112" type="line"/>
      <point x="1033" y="112" type="line"/>
      <point x="1548" y="1399" type="line"/>
      <point x="1548" y="0" type="line"/>
      <point x="1721" y="0" type="line"/>
      <point x="1721" y="1579" type="line"/>
      <point x="1440" y="1579" type="line"/>
      <point x="955" y="320" type="line"/>
      <point x="470" y="1579" type="line"/>
      <point x="189" y="1579" type="line"/>
    </contour>
  </outline>
</glyph>
<glyph name="N" format="1">
  <advance width="1656"/>
  <unicode hex="004E"/>
  <outline>
    <contour>
      <point x="209" y="0" type="line"/>
      <point x="381" y="0" type="line"/>
      <point x="381" y="1404" type="line"/>
      <point x="1200" y="0" type="line"/>
      <point x="1462" y="0" type="line"/>
      <point x="1462" y="1579" type="line"/>
      <point x="1290" y="1579" type="line"/>
      <point x="1290" y="175" type="line"/>
      <point x="471" y="1579" type="line"/>
      <point x="209" y="1579" type="line"/>
    </contour>
  </outline>
</glyph>
<glyph name="O" format="1">
  <advance width="1620"/>
  <unicode hex="004F"/>
  <outline>
    <contour>
      <point x="801" y="132" type="curve" smooth="yes"/>
      <point x="418" y="132"/>
      <point x="341" y="464"/>
      <point x="341" y="784" type="curve" smooth="yes"/>
      <point x="341" y="1101"/>
      <point x="418" y="1447"/>
      <point x="801" y="1447" type="curve" smooth="yes"/>
      <point x="1185" y="1447"/>
      <point x="1263" y="1103"/>
      <point x="1263" y="784" type="curve" smooth="yes"/>
      <point x="1263" y="464"/>
      <point x="1182" y="132"/>
    </contour>
    <contour>
      <point x="801" y="-20" type="curve" smooth="yes"/>
      <point x="1281" y="-20"/>
      <point x="1457" y="342"/>
      <point x="1457" y="784" type="curve" smooth="yes"/>
      <point x="1457" y="1236"/>
      <point x="1285" y="1599"/>
      <point x="801" y="1599" type="curve" smooth="yes"/>
      <point x="326" y="1599"/>
      <point x="147" y="1214"/>
      <point x="147" y="784" type="curve" smooth="yes"/>
      <point x="147" y="342"/>
      <point x="323" y="-20"/>
    </contour>
  </outline>
</glyph>
<glyph name="P" format="1">
  <advance width="1440"/>
  <unicode hex="0050"/>
  <outline>
    <contour>
      <point x="189" y="0" type="line"/>
      <point x="383" y="0" type="line"/>
      <point x="383" y="639" type="line"/>
      <point x="742" y="639"/>
      <point x="1286" y="612"/>
      <point x="1286" y="1108" type="curve" smooth="yes"/>
      <point x="1286" y="1536"/>
      <point x="940" y="1579"/>
      <point x="586" y="1579" type="curve" smooth="yes"/>
      <point x="189" y="1579" type="line"/>
    </contour>
    <contour>
      <point x="383" y="784" type="line"/>
      <point x="383" y="1436" type="line"/>
      <point x="598" y="1436" type="line" smooth="yes"/>
      <point x="897" y="1436"/>
      <point x="1104" y="1422"/>
      <point x="1104" y="1084" type="curve" smooth="yes"/>
      <point x="1104" y="790"/>
      <point x="774" y="784"/>
      <point x="553" y="784" type="curve" smooth="yes"/>
    </contour>
  </outline>
</glyph>
<glyph name="Q" format="1">
  <advance width="1620"/>
  <unicode hex="0051"/>
  <outline>
    <contour>
      <point x="1206" y="-424" type="line"/>
      <point x="1325" y="-293" type="line"/>
      <point x="946" y="-21" type="line"/>
      <point x="1329" y="46"/>
      <point x="1464" y="414"/>
      <point x="1464" y="784" type="curve" smooth="yes"/>
      <point x="1464" y="1230"/>
      <point x="1305" y="1610"/>
      <point x="811" y="1610" type="curve" smooth="yes"/>
      <point x="320" y="1610"/>
      <point x="147" y="1228"/>
      <point x="147" y="792" type="curve" smooth="yes"/>
      <point x="147" y="399"/>
      <point x="288" y="15"/>
      <point x="713" y="-35" type="curve"/>
    </contour>
    <contour>
      <point x="811" y="111" type="curve" smooth="yes"/>
      <point x="420" y="111"/>
      <point x="341" y="466"/>
      <point x="341" y="784" type="curve" smooth="yes"/>
      <point x="341" y="1103"/>
      <point x="418" y="1458"/>
      <point x="811" y="1458" type="curve" smooth="yes"/>
      <point x="1201" y="1458"/>
      <point x="1270" y="1101"/>
      <point x="1270" y="784" type="curve" smooth="yes"/>
      <point x="1270" y="465"/>
      <point x="1204" y="111"/>
    </contour>
  </outline>
</glyph>
<glyph name="R" format="1">
  <advance width="1476"/>
  <unicode hex="0052"/>
  <outline>
    <contour>
      <point x="189" y="0" type="line"/>
      <point x="383" y="0" type="line"/>
      <point x="383" y="733" type="line"/>
      <point x="680" y="733" type="line" smooth="yes"/>
      <point x="1042" y="733"/>
      <point x="1099" y="653"/>
      <point x="1113" y="381" type="curve" smooth="yes"/>
      <point x="1133" y="0" type="line"/>
      <point x="1311" y="0" type="line"/>
      <point x="1291" y="405" type="line" smooth="yes"/>
      <point x="1280" y="629"/>
      <point x="1184" y="796"/>
      <point x="1011" y="809" type="curve"/>
      <point x="1178" y="847"/>
      <point x="1305" y="968"/>
      <point x="1305" y="1160" type="curve" smooth="yes"/>
      <point x="1305" y="1579"/>
      <point x="962" y="1579"/>
      <point x="592" y="1579" type="curve" smooth="yes"/>
      <point x="189" y="1579" type="line"/>
    </contour>
    <contour>
      <point x="383" y="862" type="line"/>
      <point x="383" y="1436" type="line"/>
      <point x="592" y="1436" type="line" smooth="yes"/>
      <point x="866" y="1436"/>
      <point x="1135" y="1465"/>
      <point x="1135" y="1150" type="curve" smooth="yes"/>
      <point x="1135" y="885"/>
      <point x="941" y="862"/>
      <point x="741" y="862" type="curve" smooth="yes"/>
    </contour>
  </outline>
</glyph>
<glyph name="S" format="1">
  <advance width="1332"/>
  <unicode hex="0053"/>
  <outline>
    <contour>
      <point x="640" y="-20" type="curve" smooth="yes"/>
      <point x="957" y="-20"/>
      <point x="1181" y="103"/>
      <point x="1181" y="414" type="curve" smooth="yes"/>
      <point x="1181" y="718"/>
      <point x="1008" y="804"/>
      <point x="767" y="891" type="curve" smooth="yes"/>
      <point x="704" y="913"/>
      <point x="634" y="937"/>
      <point x="572" y="959" type="curve" smooth="yes"/>
      <point x="419" y="1013"/>
      <point x="306" y="1057"/>
      <point x="306" y="1197" type="curve" smooth="yes"/>
      <point x="306" y="1398"/>
      <point x="485" y="1447"/>
      <point x="663" y="1447" type="curve" smooth="yes"/>
      <point x="795" y="1447"/>
      <point x="940" y="1395"/>
      <point x="1028" y="1336" type="curve"/>
      <point x="1095" y="1473" type="line"/>
      <point x="957" y="1565"/>
      <point x="793" y="1599"/>
      <point x="624" y="1599" type="curve" smooth="yes"/>
      <point x="366" y="1599"/>
      <point x="127" y="1469"/>
      <point x="127" y="1192" type="curve" smooth="yes"/>
      <point x="127" y="941"/>
      <point x="292" y="864"/>
      <point x="485" y="798" type="curve" smooth="yes"/>
      <point x="559" y="772"/>
      <point x="638" y="749"/>
      <point x="708" y="724" type="curve" smooth="yes"/>
      <point x="879" y="664"/>
      <point x="1003" y="591"/>
      <point x="1003" y="416" type="curve" smooth="yes"/>
      <point x="1003" y="193"/>
      <point x="856" y="132"/>
      <point x="647" y="132" type="curve" smooth="yes"/>
      <point x="446" y="132"/>
      <point x="255" y="230"/>
      <point x="199" y="268" type="curve"/>
      <point x="199" y="268"/>
      <point x="134" y="122"/>
      <point x="134" y="122" type="curve"/>
      <point x="255" y="45"/>
      <point x="498" y="-20"/>
    </contour>
  </outline>
</glyph>
<glyph name="T" format="1">
  <advance width="1116"/>
  <unicode hex="0054"/>
  <outline>
    <contour>
      <point x="471" y="0" type="line"/>
      <point x="661" y="0" type="line"/>
      <point x="661" y="1436" type="line"/>
      <point x="1119" y="1436" type="line"/>
      <point x="1119" y="1579" type="line"/>
      <point x="11" y="1579" type="line"/>
      <point x="11" y="1436" type="line"/>
      <point x="471" y="1436" type="line"/>
    </contour>
  </outline>
</glyph>
<glyph name="U" format="1">
  <advance width="1572"/>
  <unicode hex="0055"/>
  <outline>
    <contour>
      <point x="784" y="-41" type="curve" smooth="yes"/>
      <point x="1274" y="-41"/>
      <point x="1402" y="245"/>
      <point x="1402" y="701" type="curve" smooth="yes"/>
      <point x="1402" y="1579" type="line"/>
      <point x="1206" y="1579" type="line"/>
      <point x="1206" y="697" type="line" smooth="yes"/>
      <point x="1206" y="361"/>
      <point x="1175" y="100"/>
      <point x="784" y="100" type="curve" smooth="yes"/>
      <point x="395" y="100"/>
      <point x="360" y="359"/>
      <point x="360" y="697" type="curve" smooth="yes"/>
      <point x="360" y="1579" type="line"/>
      <point x="168" y="1579" type="line"/>
      <point x="168" y="701" type="line" smooth="yes"/>
      <point x="168" y="244"/>
      <point x="298" y="-41"/>
    </contour>
  </outline>
</glyph>
<glyph name="V" format="1">
  <advance width="1248"/>
  <unicode hex="0056"/>
  <outline>
    <contour>
      <point x="499" y="0" type="line"/>
      <point x="743" y="0" type="line"/>
      <point x="1237" y="1579" type="line"/>
      <point x="1048" y="1579" type="line"/>
      <point x="621" y="140" type="line"/>
      <point x="194" y="1579" type="line"/>
      <point x="3" y="1579" type="line"/>
    </contour>
  </outline>
</glyph>
<glyph name="W" format="1">
  <advance width="1848"/>
  <unicode hex="0057"/>
  <outline>
    <contour>
      <point x="340" y="0" type="line"/>
      <point x="607" y="0" type="line"/>
      <point x="928" y="1333" type="line"/>
      <point x="1235" y="0" type="line"/>
      <point x="1501" y="0" type="line"/>
      <point x="1897" y="1579" type="line"/>
      <point x="1717" y="1579" type="line"/>
      <point x="1367" y="175" type="line"/>
      <point x="1065" y="1489" type="line"/>
      <point x="791" y="1489" type="line"/>
      <point x="475" y="175" type="line"/>
      <point x="125" y="1579" type="line"/>
      <point x="-51" y="1579" type="line"/>
    </contour>
  </outline>
</glyph>
<glyph name="X" format="1">
  <advance width="1308"/>
  <unicode hex="0058"/>
  <outline>
    <contour>
      <point x="44" y="0" type="line"/>
      <point x="262" y="0" type="line"/>
      <point x="391" y="217"/>
      <point x="520" y="434"/>
      <point x="650" y="650" type="curve"/>
      <point x="1038" y="0" type="line"/>
      <point x="1256" y="0" type="line"/>
      <point x="759" y="800" type="line"/>
      <point x="1254" y="1579" type="line"/>
      <point x="1058" y="1579" type="line"/>
      <point x="650" y="947" type="line"/>
      <point x="242" y="1579" type="line"/>
      <point x="46" y="1579" type="line"/>
      <point x="541" y="800" type="line"/>
    </contour>
  </outline>
</glyph>
<glyph name="Y" format="1">
  <advance width="1164"/>
  <unicode hex="0059"/>
  <outline>
    <contour>
      <point x="485" y="0" type="line"/>
      <point x="675" y="0" type="line"/>
      <point x="675" y="557" type="line"/>
      <point x="1189" y="1579" type="line"/>
      <point x="998" y="1579" type="line"/>
      <point x="580" y="748" type="line"/>
      <point x="440" y="1024"/>
      <point x="303" y="1301"/>
      <point x="168" y="1579" type="curve"/>
      <point x="-24" y="1579" type="line"/>
      <point x="485" y="557" type="line"/>
    </contour>
  </outline>
</glyph>
<glyph name="backslash" format="1">
  <advance width="972"></advance>
  <unicode hex="005C"></unicode>
  <outline>
    <contour>
      <point x="693" y="-172" type="line"></point>
      <point x="853" y="-114" type="line"></point>
      <point x="230" y="1731" type="line"></point>
      <point x="72" y="1679" type="line"></point>
    </contour>
  </outline>
</glyph>
<glyph name="bracketright" format="1">
  <advance width="1068"></advance>
  <unicode hex="005D"></unicode>
  <outline>
    <contour>
      <point x="196" y="0" type="line"></point>
      <point x="860" y="0" type="line"></point>
      <point x="860" y="1579" type="line"></point>
      <point x="196" y="1579" type="line"></point>
      <point x="196" y="1436" type="line"></point>
      <point x="667" y="1436" type="line"></point>
      <point x="667" y="143" type="line"></point>
      <point x="196" y="143" type="line"></point>
    </contour>
  </outline>
</glyph>
<glyph name="asciicircum" format="1">
  <advance width="936"></advance>
  <unicode hex="005E"></unicode>
  <outline>
    <contour>
      <point x="125" y="510" type="line"></point>
      <point x="253" y="432" type="line"></point>
      <point x="465" y="809" type="line"></point>
      <point x="677" y="432" type="line"></point>
      <point x="805" y="510" type="line"></point>
      <point x="513" y="1011" type="line"></point>
      <point x="417" y="1011" type="line"></point>
    </contour>
  </outline>
</glyph>
<glyph name="grave" format="1">
  <advance width="804"></advance>
  <unicode hex="0060"></unicode>
  <outline>
    <contour>
      <point x="574" y="328" type="line"></point>
      <point x="631" y="354" type="line"></point>
      <point x="321" y="860" type="line"></point>
      <point x="160" y="759" type="line"></point>
    </contour>
  </outline>
</glyph>
<glyph name="a" format="1">
  <advance width="1190"/>
  <unicode hex="0061"/>
  <outline>
    <contour>
      <point x="524" y="116" type="curve" smooth="yes"/>
      <point x="369" y="116"/>
      <point x="280" y="193"/>
      <point x="280" y="356" type="curve" smooth="yes"/>
      <point x="280" y="546"/>
      <point x="429" y="581"/>
      <point x="601" y="581" type="curve" smooth="yes"/>
      <point x="739" y="581"/>
      <point x="810" y="564"/>
      <point x="853" y="554" type="curve"/>
      <point x="853" y="274" type="line"/>
      <point x="761" y="188"/>
      <point x="653" y="116"/>
    </contour>
    <contour>
      <point x="1043" y="0" type="line"/>
      <point x="1043" y="686" type="line" smooth="yes"/>
      <point x="1043" y="1043"/>
      <point x="948" y="1190"/>
      <point x="577" y="1190" type="curve" smooth="yes"/>
      <point x="380" y="1190"/>
      <point x="224" y="1139"/>
      <point x="148" y="1103" type="curve"/>
      <point x="199" y="968" type="line"/>
      <point x="258" y="987"/>
      <point x="372" y="1048"/>
      <point x="590" y="1048" type="curve" smooth="yes"/>
      <point x="834" y="1048"/>
      <point x="853" y="925"/>
      <point x="853" y="713" type="curve" smooth="yes"/>
      <point x="853" y="671" type="line"/>
      <point x="778" y="690"/>
      <point x="660" y="706"/>
      <point x="552" y="706" type="curve" smooth="yes"/>
      <point x="290" y="706"/>
      <point x="89" y="603"/>
      <point x="89" y="343" type="curve" smooth="yes"/>
      <point x="89" y="109"/>
      <point x="241" y="-20"/>
      <point x="480" y="-20" type="curve" smooth="yes"/>
      <point x="647" y="-20"/>
      <point x="777" y="44"/>
      <point x="875" y="178" type="curve"/>
      <point x="903" y="0" type="line"/>
    </contour>
  </outline>
</glyph>
<glyph name="b" format="1">
  <advance width="1278.0"/>
  <unicode hex="0062"/>
  <outline>
    <contour>
      <point x="686" y="-20" type="curve" smooth="yes"/>
      <point x="1031" y="-20"/>
      <point x="1184.0" y="277.0"/>
      <point x="1184.0" y="580.0" type="curve" smooth="yes"/>
      <point x="1184.0" y="933.0"/>
      <point x="1021" y="1200"/>
      <point x="694.0" y="1190.0" type="curve" smooth="yes"/>
      <point x="491" y="1184"/>
      <point x="343" y="1068"/>
      <point x="267" y="931" type="curve"/>
      <point x="267" y="822" type="line"/>
      <point x="359" y="948"/>
      <point x="509" y="1048"/>
      <point x="683.0" y="1047.0" type="curve" smooth="yes"/>
      <point x="893" y="1046"/>
      <point x="1002.0" y="882.0"/>
      <point x="1002.0" y="584.0" type="curve" smooth="yes"/>
      <point x="1002.0" y="390.0"/>
      <point x="952" y="128"/>
      <point x="705.0" y="117.0" type="curve" smooth="yes"/>
      <point x="474" y="107"/>
      <point x="359" y="229"/>
      <point x="267" y="386" type="curve"/>
      <point x="245" y="266" type="line"/>
      <point x="303" y="157"/>
      <point x="429" y="-20"/>
    </contour>
    <component base="lc_ascender_stem_2"/>
  </outline>
</glyph>
<glyph name="c" format="1">
  <advance width="1075"/>
  <unicode hex="0063"/>
  <outline>
    <contour>
      <point x="629" y="-20" type="curve" smooth="yes"/>
      <point x="763" y="-24"/>
      <point x="882" y="18"/>
      <point x="990" y="111" type="curve"/>
      <point x="930" y="231" type="line"/>
      <point x="850" y="164"/>
      <point x="752" y="113"/>
      <point x="638" y="117" type="curve" smooth="yes"/>
      <point x="385" y="125"/>
      <point x="282" y="357"/>
      <point x="282" y="580" type="curve" smooth="yes"/>
      <point x="282" y="810"/>
      <point x="376" y="1049"/>
      <point x="631" y="1049" type="curve" smooth="yes"/>
      <point x="741" y="1049"/>
      <point x="850" y="1009"/>
      <point x="933" y="933" type="curve"/>
      <point x="990" y="1057" type="line"/>
      <point x="882" y="1145"/>
      <point x="760" y="1190"/>
      <point x="626" y="1190" type="curve" smooth="yes"/>
      <point x="282" y="1190"/>
      <point x="94" y="911"/>
      <point x="94" y="584" type="curve" smooth="yes"/>
      <point x="94" y="261"/>
      <point x="284" y="-9"/>
    </contour>
  </outline>
</glyph>
<glyph name="d" format="1">
  <advance width="1260"/>
  <unicode hex="0064"/>
  <outline>
    <contour>
      <point x="592" y="-20" type="curve" smooth="yes"/>
      <point x="849" y="-20"/>
      <point x="975" y="157"/>
      <point x="1033" y="266" type="curve"/>
      <point x="1011" y="386" type="line"/>
      <point x="919" y="229"/>
      <point x="804" y="107"/>
      <point x="573" y="117" type="curve" smooth="yes"/>
      <point x="326" y="128"/>
      <point x="276" y="390"/>
      <point x="276" y="584" type="curve" smooth="yes"/>
      <point x="276" y="882"/>
      <point x="385" y="1046"/>
      <point x="595" y="1047" type="curve" smooth="yes"/>
      <point x="769" y="1048"/>
      <point x="919" y="948"/>
      <point x="1011" y="822" type="curve"/>
      <point x="1011" y="931" type="line"/>
      <point x="935" y="1068"/>
      <point x="787" y="1184"/>
      <point x="584" y="1190" type="curve" smooth="yes"/>
      <point x="257" y="1200"/>
      <point x="94" y="933"/>
      <point x="94" y="580" type="curve" smooth="yes"/>
      <point x="94" y="277"/>
      <point x="247" y="-20"/>
    </contour>
    <component base="lc_ascender_stem_3" xOffset="-151"/>
  </outline>
</glyph>
<glyph name="e" format="1">
  <advance width="1163"/>
  <unicode hex="0065"/>
  <outline>
    <contour>
      <point x="624" y="-20" type="curve" smooth="yes"/>
      <point x="762" y="-24"/>
      <point x="937" y="25"/>
      <point x="1031" y="106" type="curve"/>
      <point x="975" y="230" type="line"/>
      <point x="931" y="194"/>
      <point x="794" y="106"/>
      <point x="625" y="118" type="curve" smooth="yes"/>
      <point x="359" y="137"/>
      <point x="282" y="343"/>
      <point x="280" y="563" type="curve"/>
      <point x="1058" y="563" type="line"/>
      <point x="1064" y="600"/>
      <point x="1069" y="638"/>
      <point x="1069" y="676" type="curve" smooth="yes"/>
      <point x="1069" y="965"/>
      <point x="923" y="1190"/>
      <point x="615" y="1190" type="curve" smooth="yes"/>
      <point x="263" y="1190"/>
      <point x="94" y="897"/>
      <point x="94" y="578" type="curve" smooth="yes"/>
      <point x="94" y="246"/>
      <point x="263" y="-10"/>
    </contour>
    <contour>
      <point x="901" y="687" type="line"/>
      <point x="285" y="687" type="line"/>
      <point x="302" y="887"/>
      <point x="388" y="1050"/>
      <point x="616" y="1050" type="curve" smooth="yes"/>
      <point x="821" y="1050"/>
      <point x="901" y="896"/>
      <point x="901" y="715" type="curve" smooth="yes"/>
    </contour>
  </outline>
</glyph>
<glyph name="f" format="1">
  <advance width="821"/>
  <unicode hex="0066"/>
  <outline>
    <contour>
      <point x="443" y="0" type="line"/>
      <point x="443" y="1046" type="line"/>
      <point x="790" y="1046" type="line"/>
      <point x="790" y="1169" type="line"/>
      <point x="443" y="1169" type="line"/>
      <point x="443" y="1252" type="line" smooth="yes"/>
      <point x="443" y="1485"/>
      <point x="554" y="1508"/>
      <point x="627" y="1509" type="curve" smooth="yes"/>
      <point x="666" y="1510"/>
      <point x="734" y="1493"/>
      <point x="784" y="1474" type="curve"/>
      <point x="823" y="1599" type="line"/>
      <point x="752" y="1628"/>
      <point x="677" y="1646"/>
      <point x="607" y="1648" type="curve" smooth="yes"/>
      <point x="449" y="1653"/>
      <point x="253" y="1569"/>
      <point x="253" y="1260" type="curve" smooth="yes"/>
      <point x="253" y="1169" type="line"/>
      <point x="53" y="1169" type="line"/>
      <point x="53" y="1046" type="line"/>
      <point x="253" y="1046" type="line"/>
      <point x="253" y="0" type="line"/>
    </contour>
  </outline>
</glyph>
<glyph name="g" format="1">
  <advance width="1188"/>
  <unicode hex="0067"/>
  <outline>
    <contour>
      <point x="513" y="-420" type="curve" smooth="yes"/>
      <point x="819" y="-420"/>
      <point x="1094" y="-354"/>
      <point x="1094" y="-84" type="curve" smooth="yes"/>
      <point x="1094" y="198"/>
      <point x="893" y="219"/>
      <point x="636" y="219" type="curve" smooth="yes"/>
      <point x="344" y="219" type="line"/>
      <point x="344" y="219"/>
      <point x="303" y="261"/>
      <point x="303" y="321" type="curve" smooth="yes"/>
      <point x="303" y="385"/>
      <point x="349" y="464"/>
      <point x="349" y="464" type="curve" smooth="yes"/>
      <point x="349" y="464"/>
      <point x="424" y="421"/>
      <point x="554" y="421" type="curve" smooth="yes"/>
      <point x="808" y="421"/>
      <point x="998" y="547"/>
      <point x="998" y="824" type="curve"/>
      <point x="996" y="900"/>
      <point x="962" y="979"/>
      <point x="918" y="1015" type="curve"/>
      <point x="1160" y="1042" type="line"/>
      <point x="1149" y="1171" type="line"/>
      <point x="1040" y="1170"/>
      <point x="943" y="1165"/>
      <point x="844" y="1114" type="curve"/>
      <point x="765" y="1175"/>
      <point x="661" y="1190"/>
      <point x="564" y="1190" type="curve" smooth="yes"/>
      <point x="291" y="1190"/>
      <point x="111" y="1025"/>
      <point x="111" y="818" type="curve" smooth="yes"/>
      <point x="111" y="631"/>
      <point x="221" y="531"/>
      <point x="275" y="503" type="curve"/>
      <point x="172" y="411"/>
      <point x="137" y="338"/>
      <point x="137" y="274" type="curve" smooth="yes"/>
      <point x="137" y="180"/>
      <point x="216" y="119"/>
      <point x="279" y="108" type="curve"/>
      <point x="180" y="62"/>
      <point x="113" y="-20"/>
      <point x="113" y="-135" type="curve" smooth="yes"/>
      <point x="113" y="-378"/>
      <point x="311" y="-420"/>
    </contour>
    <contour>
      <point x="523" y="-278" type="curve" smooth="yes"/>
      <point x="400" y="-278"/>
      <point x="276" y="-260"/>
      <point x="276" y="-120" type="curve" smooth="yes"/>
      <point x="276" y="-45"/>
      <point x="308" y="41"/>
      <point x="371" y="81" type="curve"/>
      <point x="679" y="81" type="line" smooth="yes"/>
      <point x="816" y="81"/>
      <point x="927" y="91"/>
      <point x="927" y="-89" type="curve" smooth="yes"/>
      <point x="927" y="-262"/>
      <point x="729" y="-278"/>
    </contour>
    <contour>
      <point x="564" y="552" type="curve"/>
      <point x="357" y="552"/>
      <point x="281" y="656"/>
      <point x="281" y="811" type="curve" smooth="yes"/>
      <point x="281" y="954"/>
      <point x="372" y="1057"/>
      <point x="571" y="1057" type="curve" smooth="yes"/>
      <point x="762" y="1057"/>
      <point x="837" y="957"/>
      <point x="837" y="797" type="curve" smooth="yes"/>
      <point x="837" y="687"/>
      <point x="767" y="552"/>
    </contour>
  </outline>
</glyph>
<glyph name="h" format="1">
  <advance width="1284"/>
  <unicode hex="0068"/>
  <outline>
    <contour>
      <point x="1125" y="0" type="line"/>
      <point x="1125" y="727" type="line" smooth="yes"/>
      <point x="1125" y="986"/>
      <point x="1028" y="1190"/>
      <point x="728" y="1190" type="curve" smooth="yes"/>
      <point x="491" y="1190"/>
      <point x="340" y="1028"/>
      <point x="250" y="914" type="curve"/>
      <point x="250" y="914"/>
      <point x="270" y="787"/>
      <point x="270" y="787" type="curve"/>
      <point x="354" y="881"/>
      <point x="482" y="1046"/>
      <point x="711" y="1046" type="curve" smooth="yes"/>
      <point x="902" y="1046"/>
      <point x="939" y="884"/>
      <point x="939" y="727" type="curve" smooth="yes"/>
      <point x="939" y="0" type="line"/>
    </contour>
    <component base="lc_ascender_stem"/>
  </outline>
</glyph>
<glyph name="i" format="1">
  <advance width="535"/>
  <unicode hex="0069"/>
  <outline>
    <contour>
      <point x="289" y="1347" type="curve" smooth="yes"/>
      <point x="354" y="1347"/>
      <point x="397" y="1400"/>
      <point x="397" y="1462" type="curve" smooth="yes"/>
      <point x="397" y="1524"/>
      <point x="354" y="1577"/>
      <point x="289" y="1577" type="curve" smooth="yes"/>
      <point x="226" y="1577"/>
      <point x="177" y="1524"/>
      <point x="177" y="1462" type="curve" smooth="yes"/>
      <point x="177" y="1399"/>
      <point x="225" y="1347"/>
    </contour>
    <contour>
      <point x="380" y="0" type="line" name="1"/>
      <point x="380" y="1169" type="line"/>
      <point x="190" y="1169" type="line"/>
      <point x="190" y="0" type="line"/>
    </contour>
  </outline>
</glyph>
<glyph name="j" format="1">
  <advance width="696"/>
  <unicode hex="006A"/>
  <outline>
    <contour>
      <point x="11" y="-463" type="line"/>
      <point x="249" y="-405"/>
      <point x="380" y="-298"/>
      <point x="380" y="44" type="curve" smooth="yes"/>
      <point x="380" y="44"/>
      <point x="190" y="66"/>
      <point x="190" y="66" type="curve" smooth="yes"/>
      <point x="190" y="-194"/>
      <point x="175" y="-239"/>
      <point x="-39" y="-324" type="curve"/>
    </contour>
    <component base="i"/>
  </outline>
</glyph>
<glyph name="k" format="1">
  <advance width="1128"/>
  <unicode hex="006B"/>
  <outline>
    <contour>
      <point x="1140" y="0" type="line"/>
      <point x="591" y="657" type="line"/>
      <point x="1096" y="1169" type="line"/>
      <point x="875" y="1169" type="line"/>
      <point x="253" y="547" type="line"/>
      <point x="253" y="547"/>
      <point x="253" y="393"/>
      <point x="253" y="393" type="curve"/>
      <point x="453" y="578" type="line"/>
      <point x="933" y="0" type="line"/>
    </contour>
    <component base="lc_ascender_stem"/>
  </outline>
</glyph>
<glyph name="m" format="1">
  <advance width="1994"/>
  <unicode hex="006D"/>
  <outline>
    <contour>
      <point x="1012" y="774" type="line"/>
      <point x="1167" y="973"/>
      <point x="1316" y="1046"/>
      <point x="1459" y="1046" type="curve" smooth="yes"/>
      <point x="1630" y="1046"/>
      <point x="1654" y="912"/>
      <point x="1654" y="768" type="curve" smooth="yes"/>
      <point x="1654" y="0" type="line"/>
      <point x="1844" y="0" type="line"/>
      <point x="1844" y="766" type="line" smooth="yes"/>
      <point x="1844" y="992"/>
      <point x="1736" y="1190"/>
      <point x="1487" y="1190" type="curve" smooth="yes"/>
      <point x="1324" y="1190"/>
      <point x="1129" y="1119"/>
      <point x="982" y="875" type="curve"/>
      <point x="995" y="837" type="line"/>
    </contour>
    <contour>
      <point x="270" y="783" type="line"/>
      <point x="410" y="960"/>
      <point x="577" y="1046"/>
      <point x="709" y="1046" type="curve" smooth="yes"/>
      <point x="881" y="1046"/>
      <point x="909" y="912"/>
      <point x="909" y="768" type="curve" smooth="yes"/>
      <point x="909" y="0" type="line"/>
      <point x="1099" y="0" type="line"/>
      <point x="1099" y="773" type="line" smooth="yes"/>
      <point x="1099" y="838"/>
      <point x="1091" y="1190"/>
      <point x="740" y="1190" type="curve" smooth="yes"/>
      <point x="580" y="1190"/>
      <point x="422" y="1123"/>
      <point x="250" y="910" type="curve"/>
    </contour>
    <component base="lc_main_stem"/>
  </outline>
</glyph>
<glyph name="n" format="1">
  <advance width="1275"/>
  <unicode hex="006E"/>
  <outline>
    <contour>
      <point x="1125" y="0" type="line"/>
      <point x="1125" y="727" type="line" smooth="yes"/>
      <point x="1125" y="986"/>
      <point x="1028" y="1190"/>
      <point x="728" y="1190" type="curve" smooth="yes"/>
      <point x="491" y="1190"/>
      <point x="340" y="1034"/>
      <point x="250" y="920" type="curve"/>
      <point x="250" y="920"/>
      <point x="270" y="793"/>
      <point x="270" y="793" type="curve"/>
      <point x="354" y="887"/>
      <point x="487" y="1046"/>
      <point x="716" y="1046" type="curve" smooth="yes"/>
      <point x="907" y="1046"/>
      <point x="939" y="884"/>
      <point x="939" y="727" type="curve" smooth="yes"/>
      <point x="939" y="0" type="line"/>
    </contour>
    <component base="lc_main_stem"/>
  </outline>
</glyph>
<glyph name="o" format="1">
  <advance width="1256"/>
  <unicode hex="006F"/>
  <outline>
    <contour>
      <point x="628" y="-20" type="curve"/>
      <point x="987" y="-20"/>
      <point x="1162" y="249"/>
      <point x="1162" y="582" type="curve" smooth="yes"/>
      <point x="1162" y="914"/>
      <point x="987" y="1190"/>
      <point x="628" y="1190" type="curve"/>
      <point x="269" y="1190"/>
      <point x="94" y="914"/>
      <point x="94" y="582" type="curve" smooth="yes"/>
      <point x="94" y="249"/>
      <point x="269" y="-20"/>
    </contour>
    <contour>
      <point x="628" y="124" type="curve"/>
      <point x="378" y="124"/>
      <point x="282" y="355"/>
      <point x="282" y="586" type="curve" smooth="yes"/>
      <point x="282" y="816"/>
      <point x="377" y="1046"/>
      <point x="628" y="1046" type="curve"/>
      <point x="879" y="1046"/>
      <point x="974" y="816"/>
      <point x="974" y="586" type="curve" smooth="yes"/>
      <point x="974" y="355"/>
      <point x="878" y="124"/>
    </contour>
  </outline>
</glyph>
<glyph name="p" format="1">
  <advance width="1259"/>
  <unicode hex="0070"/>
  <outline>
    <contour>
      <point x="667" y="-20" type="curve" smooth="yes"/>
      <point x="1012" y="-20"/>
      <point x="1165" y="277"/>
      <point x="1165" y="580" type="curve" smooth="yes"/>
      <point x="1165" y="927"/>
      <point x="1008" y="1190"/>
      <point x="693" y="1190" type="curve" smooth="yes"/>
      <point x="472" y="1184"/>
      <point x="324" y="1068"/>
      <point x="248" y="931" type="curve"/>
      <point x="248" y="822" type="line"/>
      <point x="340" y="947"/>
      <point x="489" y="1046"/>
      <point x="661" y="1046" type="curve" smooth="yes"/>
      <point x="874" y="1045"/>
      <point x="983" y="882"/>
      <point x="983" y="584" type="curve"/>
      <point x="983" y="318"/>
      <point x="899" y="116"/>
      <point x="660" y="116" type="curve"/>
      <point x="446" y="116"/>
      <point x="336" y="235"/>
      <point x="248" y="386" type="curve"/>
      <point x="226" y="266" type="line"/>
      <point x="284" y="157"/>
      <point x="410" y="-20"/>
    </contour>
    <component base="lc_descender_stem"/>
  </outline>
</glyph>
<glyph name="q" format="1">
  <advance width="1267"/>
  <unicode hex="0071"/>
  <outline>
    <contour>
      <point x="921" y="-502" type="line"/>
      <point x="1111" y="-479" type="line"/>
      <point x="1111" y="1169" type="line"/>
      <point x="972" y="1169" type="line"/>
      <point x="935" y="975" type="line"/>
      <point x="854" y="1097"/>
      <point x="704" y="1190"/>
      <point x="555" y="1190" type="curve" smooth="yes"/>
      <point x="213" y="1190"/>
      <point x="94" y="878"/>
      <point x="94" y="584" type="curve" smooth="yes"/>
      <point x="94" y="288"/>
      <point x="225" y="-20"/>
      <point x="565" y="-20" type="curve" smooth="yes"/>
      <point x="703" y="-20"/>
      <point x="837" y="46"/>
      <point x="921" y="153" type="curve"/>
    </contour>
    <contour>
      <point x="584" y="117" type="curve" smooth="yes"/>
      <point x="344" y="117"/>
      <point x="276" y="385"/>
      <point x="276" y="584" type="curve" smooth="yes"/>
      <point x="276" y="774"/>
      <point x="322" y="1047"/>
      <point x="568" y="1047" type="curve" smooth="yes"/>
      <point x="688" y="1047"/>
      <point x="837" y="975"/>
      <point x="921" y="891" type="curve"/>
      <point x="921" y="268" type="line"/>
      <point x="839" y="184"/>
      <point x="698" y="117"/>
    </contour>
  </outline>
</glyph>
<glyph name="r" format="1">
  <advance width="798"/>
  <unicode hex="0072"/>
  <outline>
    <contour>
      <point x="263" y="804" type="line"/>
      <point x="338" y="876"/>
      <point x="494" y="1007"/>
      <point x="737" y="1026" type="curve"/>
      <point x="718" y="1180" type="line"/>
      <point x="601" y="1180"/>
      <point x="371" y="1080"/>
      <point x="246" y="857" type="curve"/>
    </contour>
    <component base="lc_main_stem" xOffset="8"/>
  </outline>
</glyph>
<glyph name="s" format="1">
  <advance width="1008.22042017"/>
  <unicode hex="0073"/>
  <outline>
    <contour>
      <point x="502" y="-20" type="curve" smooth="yes"/>
      <point x="721" y="-24"/>
      <point x="910" y="68"/>
      <point x="917" y="316" type="curve" smooth="yes"/>
      <point x="923" y="527"/>
      <point x="806" y="606"/>
      <point x="628" y="660" type="curve" smooth="yes"/>
      <point x="415" y="725" type="line" smooth="yes"/>
      <point x="295" y="762"/>
      <point x="270" y="806"/>
      <point x="270" y="888" type="curve"/>
      <point x="273" y="1023"/>
      <point x="403" y="1046"/>
      <point x="509" y="1046" type="curve" smooth="yes"/>
      <point x="621" y="1046"/>
      <point x="726" y="1020"/>
      <point x="808" y="963" type="curve"/>
      <point x="872" y="1079" type="line"/>
      <point x="788" y="1147"/>
      <point x="658" y="1190"/>
      <point x="488" y="1190" type="curve" smooth="yes"/>
      <point x="298" y="1190"/>
      <point x="95" y="1100"/>
      <point x="95" y="878" type="curve" smooth="yes"/>
      <point x="95" y="698"/>
      <point x="196" y="616"/>
      <point x="357" y="569" type="curve" smooth="yes"/>
      <point x="581" y="503" type="line" smooth="yes"/>
      <point x="702" y="467"/>
      <point x="750" y="427"/>
      <point x="745" y="300" type="curve" smooth="yes"/>
      <point x="739" y="156"/>
      <point x="613" y="124"/>
      <point x="503" y="124" type="curve" smooth="yes"/>
      <point x="397" y="124"/>
      <point x="263" y="174"/>
      <point x="172" y="237" type="curve"/>
      <point x="115" y="110" type="line"/>
      <point x="198" y="42"/>
      <point x="345" y="-17"/>
    </contour>
  </outline>
</glyph>
<glyph name="t" format="1">
  <advance width="851"/>
  <unicode hex="0074"/>
  <outline>
    <contour>
      <point x="538" y="-14" type="curve" smooth="yes"/>
      <point x="620" y="-14"/>
      <point x="701" y="0"/>
      <point x="775" y="35" type="curve"/>
      <point x="744" y="164" type="line"/>
      <point x="680" y="144"/>
      <point x="626" y="132"/>
      <point x="585" y="132" type="curve" smooth="yes"/>
      <point x="447" y="132"/>
      <point x="429" y="216"/>
      <point x="429" y="287" type="curve" smooth="yes"/>
      <point x="429" y="1046" type="line"/>
      <point x="762" y="1046" type="line"/>
      <point x="762" y="1169" type="line"/>
      <point x="429" y="1169" type="line"/>
      <point x="429" y="1576" type="line"/>
      <point x="267" y="1530" type="line"/>
      <point x="247" y="1169" type="line"/>
      <point x="56" y="1169" type="line"/>
      <point x="56" y="1046" type="line"/>
      <point x="243" y="1046" type="line"/>
      <point x="243" y="289" type="line" smooth="yes"/>
      <point x="243" y="105"/>
      <point x="349" y="-14"/>
    </contour>
  </outline>
</glyph>
<glyph name="u" format="1">
  <advance width="1293"/>
  <unicode hex="0075"/>
  <outline>
    <contour>
      <point x="1133" y="0" type="line"/>
      <point x="1133" y="1169" type="line"/>
      <point x="943" y="1169" type="line"/>
      <point x="943" y="298" type="line"/>
      <point x="848" y="203"/>
      <point x="762" y="124"/>
      <point x="569" y="124" type="curve" smooth="yes"/>
      <point x="385" y="124"/>
      <point x="340" y="263"/>
      <point x="340" y="429" type="curve" smooth="yes"/>
      <point x="340" y="1169" type="line"/>
      <point x="150" y="1169" type="line"/>
      <point x="150" y="429" type="line" smooth="yes"/>
      <point x="150" y="139"/>
      <point x="276" y="-20"/>
      <point x="558" y="-20" type="curve"/>
      <point x="764" y="-20"/>
      <point x="885" y="77"/>
      <point x="965" y="165" type="curve"/>
      <point x="992" y="0" type="line"/>
    </contour>
  </outline>
</glyph>
<glyph name="v" format="1">
  <advance width="1152"/>
  <unicode hex="0076"/>
  <outline>
    <contour>
      <point x="667" y="0" type="line"/>
      <point x="1080" y="1169" type="line"/>
      <point x="895" y="1169" type="line"/>
      <point x="580" y="175" type="line"/>
      <point x="246" y="1169" type="line"/>
      <point x="63" y="1169" type="line"/>
      <point x="486" y="0" type="line"/>
    </contour>
  </outline>
</glyph>
<glyph name="w" format="1">
  <advance width="1608"/>
  <unicode hex="0077"/>
  <outline>
    <contour>
      <point x="541" y="0" type="line"/>
      <point x="802" y="1007" type="line"/>
      <point x="1066" y="0" type="line"/>
      <point x="1266" y="0" type="line"/>
      <point x="1579" y="1169" type="line"/>
      <point x="1400" y="1169" type="line"/>
      <point x="1172" y="152" type="line"/>
      <point x="903" y="1169" type="line"/>
      <point x="701" y="1169" type="line"/>
      <point x="444" y="154" type="line"/>
      <point x="196" y="1169" type="line"/>
      <point x="22" y="1169" type="line"/>
      <point x="342" y="0" type="line"/>
    </contour>
  </outline>
</glyph>
<glyph name="x" format="1">
  <advance width="1116"/>
  <unicode hex="0078"/>
  <outline>
    <contour>
      <point x="846" y="0" type="line"/>
      <point x="1037" y="0" type="line"/>
      <point x="653" y="584" type="line"/>
      <point x="1044" y="1169" type="line"/>
      <point x="852" y="1169" type="line"/>
      <point x="553" y="712" type="line"/>
      <point x="256" y="1169" type="line"/>
      <point x="63" y="1169" type="line"/>
      <point x="459" y="584" type="line"/>
      <point x="69" y="0" type="line"/>
      <point x="262" y="0" type="line"/>
      <point x="559" y="467" type="line"/>
    </contour>
  </outline>
</glyph>
<glyph name="y" format="1">
  <advance width="1152"/>
  <unicode hex="0079"/>
  <outline>
    <contour>
      <point x="211" y="-424" type="line"/>
      <point x="488" y="-424"/>
      <point x="572" y="-259"/>
      <point x="652" y="-37" type="curve" smooth="yes"/>
      <point x="1089" y="1169" type="line"/>
      <point x="894" y="1169" type="line"/>
      <point x="593" y="220" type="line"/>
      <point x="238" y="1169" type="line"/>
      <point x="56" y="1169" type="line"/>
      <point x="507" y="23" type="line"/>
      <point x="445" y="-186"/>
      <point x="396" y="-290"/>
      <point x="171" y="-302" type="curve"/>
    </contour>
  </outline>
</glyph>
<glyph name="z" format="1">
  <advance width="999"/>
  <unicode hex="007A"/>
  <outline>
    <contour>
      <point x="110" y="0" type="line"/>
      <point x="888" y="0" type="line"/>
      <point x="888" y="145" type="line"/>
      <point x="286" y="145" type="line"/>
      <point x="888" y="1004" type="line"/>
      <point x="888" y="1169" type="line"/>
      <point x="140" y="1169" type="line"/>
      <point x="140" y="1029" type="line"/>
      <point x="724" y="1029" type="line"/>
      <point x="110" y="166" type="line"/>
    </contour>
  </outline>
</glyph>
<glyph name="braceright" format="1">
  <advance width="948"></advance>
  <unicode hex="007D"></unicode>
  <outline>
    <contour>
      <point x="100" y="-209" type="line"></point>
      <point x="766" y="-210"></point>
      <point x="287" y="572"></point>
      <point x="747" y="571" type="curve"></point>
      <point x="747" y="759" type="line"></point>
      <point x="287" y="758"></point>
      <point x="766" y="1540"></point>
      <point x="100" y="1539" type="curve"></point>
      <point x="99" y="1370" type="line"></point>
      <point x="554" y="1373"></point>
      <point x="128" y="783"></point>
      <point x="580" y="665" type="curve"></point>
      <point x="127" y="547"></point>
      <point x="555" y="-43"></point>
      <point x="99" y="-40" type="curve"></point>
    </contour>
  </outline>
</glyph>
<glyph name="asciitilde" format="1">
  <advance width="1044"></advance>
  <unicode hex="007E"></unicode>
  <outline>
    <contour>
      <point x="707" y="390" type="curve" smooth="yes"></point>
      <point x="844" y="390"></point>
      <point x="899" y="521"></point>
      <point x="899" y="640" type="curve"></point>
      <point x="743" y="640" type="line"></point>
      <point x="743" y="601"></point>
      <point x="738" y="529"></point>
      <point x="684" y="529" type="curve" smooth="yes"></point>
      <point x="582" y="529"></point>
      <point x="485" y="654"></point>
      <point x="340" y="654" type="curve" smooth="yes"></point>
      <point x="183" y="654"></point>
      <point x="139" y="531"></point>
      <point x="139" y="394" type="curve"></point>
      <point x="295" y="394" type="line"></point>
      <point x="295" y="436"></point>
      <point x="296" y="509"></point>
      <point x="354" y="509" type="curve" smooth="yes"></point>
      <point x="429" y="509"></point>
      <point x="561" y="390"></point>
    </contour>
  </outline>
</glyph>
<glyph name="exclamdown" format="1">
  <advance width="732"></advance>
  <unicode hex="00A1"></unicode>
  <outline>
    <contour>
      <point x="287" y="0" type="line"></point>
      <point x="461" y="0" type="line"></point>
      <point x="461" y="1180" type="line"></point>
      <point x="287" y="1180" type="line"></point>
    </contour>
    <contour>
      <point x="237" y="1393" type="line"></point>
      <point x="446" y="1393" type="line"></point>
      <point x="446" y="1595" type="line"></point>
      <point x="237" y="1595" type="line"></point>
    </contour>
  </outline>
</glyph>
<glyph name="cent" format="1">
  <advance width="1212"></advance>
  <unicode hex="00A2"></unicode>
  <outline>
    <contour>
      <point x="628" y="-159" type="line"></point>
      <point x="731" y="-159" type="line"></point>
      <point x="731" y="-19" type="line"></point>
      <point x="831" y="-18"></point>
      <point x="953" y="23"></point>
      <point x="1042" y="68" type="curve"></point>
      <point x="996" y="205" type="line"></point>
      <point x="918" y="158"></point>
      <point x="822" y="130"></point>
      <point x="731" y="130" type="curve"></point>
      <point x="731" y="1038" type="line"></point>
      <point x="821" y="1037"></point>
      <point x="924" y="997"></point>
      <point x="996" y="944" type="curve"></point>
      <point x="1053" y="1077" type="line"></point>
      <point x="964" y="1131"></point>
      <point x="835" y="1185"></point>
      <point x="731" y="1186" type="curve"></point>
      <point x="731" y="1329" type="line"></point>
      <point x="628" y="1329" type="line"></point>
      <point x="628" y="1189" type="line"></point>
      <point x="293" y="1156"></point>
      <point x="154" y="895"></point>
      <point x="154" y="580" type="curve" smooth="yes"></point>
      <point x="154" y="272"></point>
      <point x="294" y="-2"></point>
      <point x="628" y="-22" type="curve"></point>
    </contour>
    <contour>
      <point x="628" y="129" type="line"></point>
      <point x="398" y="153"></point>
      <point x="344" y="385"></point>
      <point x="344" y="580" type="curve" smooth="yes"></point>
      <point x="344" y="781"></point>
      <point x="394" y="1007"></point>
      <point x="628" y="1037" type="curve"></point>
    </contour>
  </outline>
</glyph>
<glyph name="currency" format="1">
  <advance width="1212"></advance>
  <unicode hex="00A4"></unicode>
  <outline>
    <contour>
      <point x="180" y="430" type="line"></point>
      <point x="369" y="619" type="line"></point>
      <point x="434" y="578"></point>
      <point x="509" y="558"></point>
      <point x="585" y="558" type="curve" smooth="yes"></point>
      <point x="671" y="558"></point>
      <point x="754" y="584"></point>
      <point x="825" y="633" type="curve"></point>
      <point x="1028" y="430" type="line"></point>
      <point x="1152" y="555" type="line"></point>
      <point x="950" y="757" type="line"></point>
      <point x="999" y="829"></point>
      <point x="1026" y="913"></point>
      <point x="1026" y="1000" type="curve" smooth="yes"></point>
      <point x="1026" y="1076"></point>
      <point x="1006" y="1150"></point>
      <point x="965" y="1215" type="curve"></point>
      <point x="1152" y="1402" type="line"></point>
      <point x="1028" y="1526" type="line"></point>
      <point x="842" y="1341" type="line"></point>
      <point x="775" y="1385"></point>
      <point x="697" y="1409"></point>
      <point x="617" y="1409" type="curve" smooth="yes"></point>
      <point x="530" y="1409"></point>
      <point x="446" y="1382"></point>
      <point x="374" y="1333" type="curve"></point>
      <point x="180" y="1526" type="line"></point>
      <point x="56" y="1402" type="line"></point>
      <point x="250" y="1208" type="line"></point>
      <point x="202" y="1137"></point>
      <point x="175" y="1053"></point>
      <point x="175" y="967" type="curve" smooth="yes"></point>
      <point x="175" y="887"></point>
      <point x="199" y="809"></point>
      <point x="243" y="742" type="curve"></point>
      <point x="56" y="555" type="line"></point>
    </contour>
    <contour>
      <point x="592" y="699" type="curve" smooth="yes"></point>
      <point x="446" y="699"></point>
      <point x="318" y="829"></point>
      <point x="318" y="975" type="curve" smooth="yes"></point>
      <point x="318" y="1130"></point>
      <point x="456" y="1266"></point>
      <point x="610" y="1266" type="curve" smooth="yes"></point>
      <point x="756" y="1266"></point>
      <point x="884" y="1138"></point>
      <point x="884" y="992" type="curve" smooth="yes"></point>
      <point x="884" y="840"></point>
      <point x="744" y="699"></point>
    </contour>
  </outline>
</glyph>
<glyph name="yen" format="1">
  <advance width="1200"></advance>
  <unicode hex="00A5"></unicode>
  <outline>
    <contour>
      <point x="502" y="0" type="line"></point>
      <point x="692" y="0" type="line"></point>
      <point x="692" y="389" type="line"></point>
      <point x="988" y="389" type="line"></point>
      <point x="988" y="488" type="line"></point>
      <point x="692" y="488" type="line"></point>
      <point x="692" y="584" type="line"></point>
      <point x="988" y="584" type="line"></point>
      <point x="988" y="688" type="line"></point>
      <point x="725" y="688" type="line"></point>
      <point x="1206" y="1579" type="line"></point>
      <point x="1012" y="1579" type="line"></point>
      <point x="592" y="788" type="line"></point>
      <point x="172" y="1579" type="line"></point>
      <point x="-17" y="1579" type="line"></point>
      <point x="461" y="688" type="line"></point>
      <point x="200" y="688" type="line"></point>
      <point x="200" y="584" type="line"></point>
      <point x="502" y="584" type="line"></point>
      <point x="502" y="488" type="line"></point>
      <point x="200" y="488" type="line"></point>
      <point x="200" y="389" type="line"></point>
      <point x="502" y="389" type="line"></point>
    </contour>
  </outline>
</glyph>
<glyph name="brokenbar" format="1">
  <advance width="732"></advance>
  <unicode hex="00A6"></unicode>
  <outline>
    <contour>
      <point x="264" y="0" type="line"></point>
      <point x="452" y="0" type="line"></point>
      <point x="452" y="690" type="line"></point>
      <point x="264" y="690" type="line"></point>
    </contour>
    <contour>
      <point x="264" y="889" type="line"></point>
      <point x="452" y="889" type="line"></point>
      <point x="452" y="1579" type="line"></point>
      <point x="264" y="1579" type="line"></point>
    </contour>
  </outline>
</glyph>
<glyph name="dieresis" format="1">
  <advance width="1020"></advance>
  <unicode hex="00A8"></unicode>
  <outline>
    <contour>
      <point x="265" y="381" type="curve" smooth="yes"></point>
      <point x="330" y="381"></point>
      <point x="373" y="434"></point>
      <point x="373" y="496" type="curve" smooth="yes"></point>
      <point x="373" y="558"></point>
      <point x="330" y="611"></point>
      <point x="265" y="611" type="curve" smooth="yes"></point>
      <point x="202" y="611"></point>
      <point x="153" y="558"></point>
      <point x="153" y="496" type="curve" smooth="yes"></point>
      <point x="153" y="433"></point>
      <point x="201" y="381"></point>
    </contour>
    <contour>
      <point x="755" y="381" type="curve" smooth="yes"></point>
      <point x="820" y="381"></point>
      <point x="863" y="434"></point>
      <point x="863" y="496" type="curve" smooth="yes"></point>
      <point x="863" y="558"></point>
      <point x="820" y="611"></point>
      <point x="755" y="611" type="curve" smooth="yes"></point>
      <point x="692" y="611"></point>
      <point x="643" y="558"></point>
      <point x="643" y="496" type="curve" smooth="yes"></point>
      <point x="643" y="433"></point>
      <point x="691" y="381"></point>
    </contour>
  </outline>
</glyph>
<glyph name="ordfeminine" format="1">
  <advance width="1068"></advance>
  <unicode hex="00AA"></unicode>
  <outline>
    <contour>
      <point x="456" y="668" type="curve" smooth="yes"></point>
      <point x="566" y="668"></point>
      <point x="702" y="720"></point>
      <point x="750" y="828" type="curve"></point>
      <point x="777" y="686" type="line"></point>
      <point x="893" y="686" type="line"></point>
      <point x="893" y="1235" type="line" smooth="yes"></point>
      <point x="893" y="1506"></point>
      <point x="820" y="1638"></point>
      <point x="532" y="1638" type="curve" smooth="yes"></point>
      <point x="425" y="1638"></point>
      <point x="290" y="1607"></point>
      <point x="196" y="1552" type="curve"></point>
      <point x="249" y="1443" type="line"></point>
      <point x="332" y="1488"></point>
      <point x="447" y="1513"></point>
      <point x="540" y="1513" type="curve" smooth="yes"></point>
      <point x="710" y="1513"></point>
      <point x="732" y="1426"></point>
      <point x="732" y="1276" type="curve" smooth="yes"></point>
      <point x="732" y="1218" type="line"></point>
      <point x="658" y="1243"></point>
      <point x="576" y="1258"></point>
      <point x="498" y="1258" type="curve" smooth="yes"></point>
      <point x="309" y="1258"></point>
      <point x="139" y="1169"></point>
      <point x="139" y="960" type="curve" smooth="yes"></point>
      <point x="139" y="766"></point>
      <point x="270" y="668"></point>
    </contour>
    <contour>
      <point x="494" y="781" type="curve" smooth="yes"></point>
      <point x="352" y="781"></point>
      <point x="300" y="828"></point>
      <point x="300" y="971" type="curve" smooth="yes"></point>
      <point x="300" y="1123"></point>
      <point x="428" y="1158"></point>
      <point x="556" y="1158" type="curve" smooth="yes"></point>
      <point x="615" y="1158"></point>
      <point x="674" y="1150"></point>
      <point x="732" y="1141" type="curve"></point>
      <point x="732" y="903" type="line"></point>
      <point x="680" y="831"></point>
      <point x="582" y="781"></point>
    </contour>
    <contour>
      <point x="203" y="446" type="line"></point>
      <point x="887" y="446" type="line"></point>
      <point x="887" y="575" type="line"></point>
      <point x="203" y="575" type="line"></point>
    </contour>
  </outline>
</glyph>
<glyph name="guillemotleft" format="1">
  <advance width="1356"></advance>
  <unicode hex="00AB"></unicode>
  <outline>
    <contour>
      <point x="658" y="99" type="line"></point>
      <point x="658" y="306" type="line"></point>
      <point x="222" y="577" type="line"></point>
      <point x="658" y="842" type="line"></point>
      <point x="658" y="1049" type="line"></point>
      <point x="50" y="666" type="line"></point>
      <point x="50" y="481" type="line"></point>
    </contour>
    <contour>
      <point x="1266" y="99" type="line"></point>
      <point x="1266" y="306" type="line"></point>
      <point x="829" y="577" type="line"></point>
      <point x="1266" y="842" type="line"></point>
      <point x="1266" y="1049" type="line"></point>
      <point x="658" y="666" type="line"></point>
      <point x="658" y="481" type="line"></point>
    </contour>
  </outline>
</glyph>
<glyph name="logicalnot" format="1">
  <advance width="1572"></advance>
  <unicode hex="00AC"></unicode>
  <outline>
    <contour>
      <point x="1234" y="338" type="line"></point>
      <point x="1410" y="338" type="line"></point>
      <point x="1410" y="1174" type="line"></point>
      <point x="56" y="1174" type="line"></point>
      <point x="56" y="1023" type="line"></point>
      <point x="1234" y="1023" type="line"></point>
    </contour>
  </outline>
</glyph>
<glyph name="degree" format="1">
  <advance width="852"></advance>
  <unicode hex="00B0"></unicode>
  <outline>
    <contour>
      <point x="422" y="750" type="curve" smooth="yes"></point>
      <point x="341" y="750"></point>
      <point x="277" y="819"></point>
      <point x="277" y="899" type="curve" smooth="yes"></point>
      <point x="277" y="980"></point>
      <point x="339" y="1048"></point>
      <point x="422" y="1048" type="curve" smooth="yes"></point>
      <point x="506" y="1048"></point>
      <point x="563" y="981"></point>
      <point x="563" y="899" type="curve" smooth="yes"></point>
      <point x="563" y="817"></point>
      <point x="506" y="750"></point>
    </contour>
    <contour>
      <point x="424" y="660" type="curve" smooth="yes"></point>
      <point x="562" y="660"></point>
      <point x="660" y="762"></point>
      <point x="660" y="899" type="curve" smooth="yes"></point>
      <point x="660" y="1035"></point>
      <point x="561" y="1139"></point>
      <point x="424" y="1139" type="curve" smooth="yes"></point>
      <point x="285" y="1139"></point>
      <point x="180" y="1039"></point>
      <point x="180" y="899" type="curve" smooth="yes"></point>
      <point x="180" y="759"></point>
      <point x="286" y="660"></point>
    </contour>
  </outline>
</glyph>
<glyph name="cedilla" format="1">
  <advance width="732"></advance>
  <unicode hex="00B8"></unicode>
  <outline>
    <contour>
      <point x="350" y="-578" type="curve" smooth="yes"></point>
      <point x="508" y="-578"></point>
      <point x="602" y="-506"></point>
      <point x="602" y="-342" type="curve" smooth="yes"></point>
      <point x="602" y="-166"></point>
      <point x="504" y="-98"></point>
      <point x="337" y="-98" type="curve"></point>
      <point x="337" y="76" type="line"></point>
      <point x="216" y="76" type="line"></point>
      <point x="216" y="-186" type="line"></point>
      <point x="321" y="-186"></point>
      <point x="469" y="-189"></point>
      <point x="469" y="-328" type="curve" smooth="yes"></point>
      <point x="469" y="-437"></point>
      <point x="432" y="-464"></point>
      <point x="330" y="-464" type="curve" smooth="yes"></point>
      <point x="291" y="-464"></point>
      <point x="206" y="-437"></point>
      <point x="166" y="-423" type="curve"></point>
      <point x="166" y="-540" type="line"></point>
      <point x="225" y="-560"></point>
      <point x="287" y="-578"></point>
    </contour>
  </outline>
</glyph>
<glyph name="ordmasculine" format="1">
  <advance width="1104"></advance>
  <unicode hex="00BA"></unicode>
  <outline>
    <contour>
      <point x="211" y="446" type="line"></point>
      <point x="895" y="446" type="line"></point>
      <point x="895" y="575" type="line"></point>
      <point x="211" y="575" type="line"></point>
    </contour>
    <contour>
      <point x="549" y="797" type="curve" smooth="yes"></point>
      <point x="341" y="797"></point>
      <point x="282" y="977"></point>
      <point x="282" y="1154" type="curve" smooth="yes"></point>
      <point x="282" y="1331"></point>
      <point x="341" y="1512"></point>
      <point x="549" y="1512" type="curve" smooth="yes"></point>
      <point x="756" y="1512"></point>
      <point x="816" y="1330"></point>
      <point x="816" y="1154" type="curve" smooth="yes"></point>
      <point x="816" y="976"></point>
      <point x="758" y="797"></point>
    </contour>
    <contour>
      <point x="549" y="670" type="curve" smooth="yes"></point>
      <point x="837" y="670"></point>
      <point x="974" y="885"></point>
      <point x="974" y="1152" type="curve" smooth="yes"></point>
      <point x="974" y="1417"></point>
      <point x="836" y="1638"></point>
      <point x="549" y="1638" type="curve" smooth="yes"></point>
      <point x="263" y="1638"></point>
      <point x="125" y="1417"></point>
      <point x="125" y="1152" type="curve" smooth="yes"></point>
      <point x="125" y="886"></point>
      <point x="262" y="670"></point>
    </contour>
  </outline>
</glyph>
<glyph name="guillemotright" format="1">
  <advance width="1356"></advance>
  <unicode hex="00BB"></unicode>
  <outline>
    <contour>
      <point x="77" y="99" type="line"></point>
      <point x="686" y="481" type="line"></point>
      <point x="686" y="666" type="line"></point>
      <point x="77" y="1049" type="line"></point>
      <point x="77" y="842" type="line"></point>
      <point x="524" y="577" type="line"></point>
      <point x="77" y="306" type="line"></point>
    </contour>
    <contour>
      <point x="684" y="99" type="line"></point>
      <point x="1293" y="481" type="line"></point>
      <point x="1293" y="666" type="line"></point>
      <point x="684" y="1049" type="line"></point>
      <point x="684" y="842" type="line"></point>
      <point x="1131" y="577" type="line"></point>
      <point x="684" y="306" type="line"></point>
    </contour>
  </outline>
</glyph>
<glyph name="onehalf" format="1">
  <advance width="1752"></advance>
  <unicode hex="00BD"></unicode>
  <outline>
    <contour>
      <point x="1002" y="-172" type="line"></point>
      <point x="1640" y="-172" type="line"></point>
      <point x="1640" y="-20" type="line"></point>
      <point x="1234" y="-20" type="line"></point>
      <point x="1385" y="108"></point>
      <point x="1668" y="289"></point>
      <point x="1668" y="517" type="curve" smooth="yes"></point>
      <point x="1668" y="711"></point>
      <point x="1500" y="798"></point>
      <point x="1325" y="798" type="curve" smooth="yes"></point>
      <point x="1222" y="798"></point>
      <point x="1116" y="785"></point>
      <point x="1019" y="748" type="curve"></point>
      <point x="1019" y="603" type="line"></point>
      <point x="1111" y="628"></point>
      <point x="1211" y="655"></point>
      <point x="1307" y="655" type="curve" smooth="yes"></point>
      <point x="1397" y="655"></point>
      <point x="1496" y="620"></point>
      <point x="1496" y="514" type="curve" smooth="yes"></point>
      <point x="1496" y="337"></point>
      <point x="1102" y="54"></point>
      <point x="1002" y="-35" type="curve"></point>
    </contour>
    <contour>
      <point x="200" y="568" type="line"></point>
      <point x="360" y="568" type="line"></point>
      <point x="360" y="1503" type="line"></point>
      <point x="230" y="1529" type="line"></point>
      <point x="-3" y="1434" type="line"></point>
      <point x="30" y="1341" type="line"></point>
      <point x="200" y="1413" type="line"></point>
    </contour>
    <contour>
      <point x="182" y="-123" type="line"></point>
      <point x="1223" y="1272" type="line"></point>
      <point x="1101" y="1365" type="line"></point>
      <point x="62" y="-30" type="line"></point>
    </contour>
  </outline>
</glyph>
<glyph name="threequarters" format="1">
  <advance width="1716"></advance>
  <unicode hex="00BE"></unicode>
  <outline>
    <contour>
      <point x="217" y="540" type="curve" smooth="yes"></point>
      <point x="395" y="540"></point>
      <point x="606" y="628"></point>
      <point x="606" y="835" type="curve" smooth="yes"></point>
      <point x="606" y="1006"></point>
      <point x="489" y="1111"></point>
      <point x="330" y="1142" type="curve"></point>
      <point x="464" y="1143"></point>
      <point x="575" y="1263"></point>
      <point x="575" y="1394" type="curve" smooth="yes"></point>
      <point x="575" y="1601"></point>
      <point x="379" y="1677"></point>
      <point x="202" y="1677" type="curve" smooth="yes"></point>
      <point x="110" y="1677"></point>
      <point x="0" y="1652"></point>
      <point x="-79" y="1611" type="curve"></point>
      <point x="-32" y="1484" type="line"></point>
      <point x="35" y="1520"></point>
      <point x="117" y="1541"></point>
      <point x="197" y="1541" type="curve" smooth="yes"></point>
      <point x="304" y="1541"></point>
      <point x="421" y="1511"></point>
      <point x="421" y="1383" type="curve" smooth="yes"></point>
      <point x="421" y="1255"></point>
      <point x="285" y="1207"></point>
      <point x="178" y="1207" type="curve"></point>
      <point x="178" y="1072" type="line"></point>
      <point x="309" y="1057"></point>
      <point x="440" y="1005"></point>
      <point x="440" y="853" type="curve" smooth="yes"></point>
      <point x="440" y="733"></point>
      <point x="328" y="672"></point>
      <point x="220" y="672" type="curve" smooth="yes"></point>
      <point x="122" y="672"></point>
      <point x="27" y="701"></point>
      <point x="-55" y="745" type="curve"></point>
      <point x="-106" y="618" type="line"></point>
      <point x="-5" y="566"></point>
      <point x="103" y="540"></point>
    </contour>
    <contour>
      <point x="1389" y="-250" type="line"></point>
      <point x="1534" y="-227" type="line"></point>
      <point x="1534" y="34" type="line"></point>
      <point x="1685" y="34" type="line"></point>
      <point x="1685" y="145" type="line"></point>
      <point x="1534" y="145" type="line"></point>
      <point x="1534" y="915" type="line"></point>
      <point x="1406" y="946" type="line"></point>
      <point x="842" y="144" type="line"></point>
      <point x="864" y="34" type="line"></point>
      <point x="1389" y="34" type="line"></point>
    </contour>
    <contour>
      <point x="357" y="-123" type="line"></point>
      <point x="1398" y="1272" type="line"></point>
      <point x="1267" y="1365" type="line"></point>
      <point x="237" y="-30" type="line"></point>
    </contour>
    <contour>
      <point x="1001" y="144" type="line"></point>
      <point x="1135" y="325"></point>
      <point x="1273" y="510"></point>
      <point x="1389" y="703" type="curve"></point>
      <point x="1389" y="144" type="line"></point>
    </contour>
  </outline>
</glyph>
<glyph name="questiondown" format="1">
  <advance width="1140"></advance>
  <unicode hex="00BF"></unicode>
  <outline>
    <contour>
      <point x="637" y="-114" type="curve" smooth="yes"></point>
      <point x="763" y="-114"></point>
      <point x="933" y="-77"></point>
      <point x="1043" y="-10" type="curve"></point>
      <point x="984" y="133" type="line"></point>
      <point x="895" y="77"></point>
      <point x="759" y="47"></point>
      <point x="656" y="47" type="curve" smooth="yes"></point>
      <point x="491" y="47"></point>
      <point x="345" y="71"></point>
      <point x="345" y="268" type="curve" smooth="yes"></point>
      <point x="345" y="518"></point>
      <point x="678" y="622"></point>
      <point x="868" y="688" type="curve"></point>
      <point x="868" y="1173" type="line"></point>
      <point x="688" y="1173" type="line"></point>
      <point x="688" y="790" type="line"></point>
      <point x="426" y="697"></point>
      <point x="154" y="573"></point>
      <point x="154" y="249" type="curve" smooth="yes"></point>
      <point x="154" y="-34"></point>
      <point x="396" y="-114"></point>
    </contour>
    <contour>
      <point x="783" y="1296" type="curve" smooth="yes"></point>
      <point x="837" y="1296"></point>
      <point x="891" y="1338"></point>
      <point x="891" y="1395" type="curve" smooth="yes"></point>
      <point x="891" y="1453"></point>
      <point x="847" y="1505"></point>
      <point x="787" y="1505" type="curve" smooth="yes"></point>
      <point x="730" y="1505"></point>
      <point x="682" y="1458"></point>
      <point x="682" y="1401" type="curve" smooth="yes"></point>
      <point x="682" y="1346"></point>
      <point x="727" y="1296"></point>
    </contour>
  </outline>
</glyph>
<glyph name="AE" format="1">
  <advance width="1764"></advance>
  <unicode hex="00C6"></unicode>
  <outline>
    <contour>
      <point x="-44" y="0" type="line"></point>
      <point x="160" y="0" type="line"></point>
      <point x="352" y="371" type="line"></point>
      <point x="904" y="371" type="line"></point>
      <point x="904" y="0" type="line"></point>
      <point x="1743" y="0" type="line"></point>
      <point x="1743" y="143" type="line"></point>
      <point x="1069" y="143" type="line"></point>
      <point x="1069" y="764" type="line"></point>
      <point x="1672" y="764" type="line"></point>
      <point x="1672" y="891" type="line"></point>
      <point x="1067" y="891" type="line"></point>
      <point x="1067" y="1436" type="line"></point>
      <point x="1715" y="1436" type="line"></point>
      <point x="1715" y="1579" type="line"></point>
      <point x="777" y="1579" type="line"></point>
    </contour>
    <contour>
      <point x="412" y="493" type="line"></point>
      <point x="902" y="1459" type="line"></point>
      <point x="902" y="493" type="line"></point>
    </contour>
  </outline>
</glyph>
<glyph name="Oslash" format="1">
  <advance width="1620"></advance>
  <unicode hex="00D8"></unicode>
  <outline>
    <contour>
      <point x="474" y="-159" type="line"></point>
      <point x="546" y="0" type="line"></point>
      <point x="628" y="-30"></point>
      <point x="715" y="-41"></point>
      <point x="802" y="-41" type="curve" smooth="yes"></point>
      <point x="1303" y="-41"></point>
      <point x="1458" y="345"></point>
      <point x="1458" y="784" type="curve" smooth="yes"></point>
      <point x="1458" y="1024"></point>
      <point x="1412" y="1317"></point>
      <point x="1213" y="1477" type="curve"></point>
      <point x="1299" y="1668" type="line"></point>
      <point x="1198" y="1710" type="line"></point>
      <point x="1120" y="1538" type="line"></point>
      <point x="1018" y="1592"></point>
      <point x="902" y="1610"></point>
      <point x="788" y="1610" type="curve" smooth="yes"></point>
      <point x="303" y="1610"></point>
      <point x="147" y="1214"></point>
      <point x="147" y="784" type="curve" smooth="yes"></point>
      <point x="147" y="503"></point>
      <point x="197" y="215"></point>
      <point x="446" y="49" type="curve"></point>
      <point x="373" y="-113" type="line"></point>
    </contour>
    <contour>
      <point x="803" y="111" type="curve" smooth="yes"></point>
      <point x="738" y="111"></point>
      <point x="674" y="121"></point>
      <point x="614" y="147" type="curve"></point>
      <point x="612" y="147" type="line"></point>
      <point x="1136" y="1307" type="line"></point>
      <point x="1239" y="1167"></point>
      <point x="1257" y="953"></point>
      <point x="1257" y="784" type="curve" smooth="yes"></point>
      <point x="1257" y="470"></point>
      <point x="1193" y="111"></point>
    </contour>
    <contour>
      <point x="519" y="209" type="line"></point>
      <point x="370" y="348"></point>
      <point x="348" y="592"></point>
      <point x="348" y="784" type="curve" smooth="yes"></point>
      <point x="348" y="1101"></point>
      <point x="411" y="1458"></point>
      <point x="803" y="1458" type="curve" smooth="yes"></point>
      <point x="890" y="1458"></point>
      <point x="980" y="1439"></point>
      <point x="1053" y="1390" type="curve"></point>
    </contour>
  </outline>
</glyph>
<glyph name="Thorn" format="1">
  <advance width="1440"></advance>
  <unicode hex="00DE"></unicode>
  <outline>
    <contour>
      <point x="189" y="0" type="line"></point>
      <point x="383" y="0" type="line"></point>
      <point x="383" y="504" type="line"></point>
      <point x="740" y="504"></point>
      <point x="1278" y="481"></point>
      <point x="1278" y="973" type="curve" smooth="yes"></point>
      <point x="1278" y="1491"></point>
      <point x="766" y="1444"></point>
      <point x="383" y="1444" type="curve"></point>
      <point x="383" y="1579" type="line"></point>
      <point x="189" y="1579" type="line"></point>
    </contour>
    <contour>
      <point x="383" y="649" type="line"></point>
      <point x="383" y="1300" type="line"></point>
      <point x="592" y="1300" type="line" smooth="yes"></point>
      <point x="873" y="1300"></point>
      <point x="1096" y="1289"></point>
      <point x="1096" y="959" type="curve" smooth="yes"></point>
      <point x="1096" y="655"></point>
      <point x="779" y="649"></point>
      <point x="545" y="649" type="curve" smooth="yes"></point>
    </contour>
  </outline>
</glyph>
<glyph name="germandbls" format="1">
  <advance width="1392"></advance>
  <unicode hex="00DF"></unicode>
  <outline>
    <contour>
      <point x="531" y="-129" type="line"></point>
      <point x="881" y="-129"></point>
      <point x="1305" y="-37"></point>
      <point x="1305" y="395" type="curve" smooth="yes"></point>
      <point x="1305" y="661"></point>
      <point x="1150" y="844"></point>
      <point x="877" y="844" type="curve"></point>
      <point x="1052" y="864"></point>
      <point x="1123" y="1015"></point>
      <point x="1123" y="1176" type="curve" smooth="yes"></point>
      <point x="1123" y="1484"></point>
      <point x="906" y="1579"></point>
      <point x="630" y="1579" type="curve" smooth="yes"></point>
      <point x="271" y="1579"></point>
      <point x="160" y="1381"></point>
      <point x="160" y="1046" type="curve" smooth="yes"></point>
      <point x="161" y="-6" type="line"></point>
      <point x="355" y="16" type="line"></point>
      <point x="355" y="1018" type="line" smooth="yes"></point>
      <point x="355" y="1240"></point>
      <point x="356" y="1436"></point>
      <point x="630" y="1436" type="curve" smooth="yes"></point>
      <point x="798" y="1436"></point>
      <point x="951" y="1399"></point>
      <point x="951" y="1200" type="curve" smooth="yes"></point>
      <point x="951" y="932.027344137"></point>
      <point x="764" y="897.578156185"></point>
      <point x="543" y="903.348274291" type="curve" smooth="yes"></point>
      <point x="529" y="903.736447869"></point>
      <point x="514" y="904.30664061"></point>
      <point x="499" y="905" type="curve"></point>
      <point x="499" y="774" type="line"></point>
      <point x="740" y="774"></point>
      <point x="1123" y="759"></point>
      <point x="1123" y="432" type="curve" smooth="yes"></point>
      <point x="1123" y="62"></point>
      <point x="847" y="27"></point>
      <point x="531" y="27" type="curve"></point>
    </contour>
  </outline>
</glyph>
<glyph name="ae" format="1">
  <advance width="1788"></advance>
  <unicode hex="00E6"></unicode>
  <outline>
    <contour>
      <point x="435" y="-23" type="curve" smooth="yes"></point>
      <point x="609" y="-23"></point>
      <point x="778" y="68"></point>
      <point x="882" y="207" type="curve"></point>
      <point x="974" y="45"></point>
      <point x="1134" y="-23"></point>
      <point x="1315" y="-23" type="curve" smooth="yes"></point>
      <point x="1432" y="-23"></point>
      <point x="1601" y="30"></point>
      <point x="1695" y="99" type="curve"></point>
      <point x="1633" y="244" type="line"></point>
      <point x="1547" y="170"></point>
      <point x="1441" y="127"></point>
      <point x="1327" y="127" type="curve" smooth="yes"></point>
      <point x="1046" y="127"></point>
      <point x="981" y="322"></point>
      <point x="981" y="567" type="curve"></point>
      <point x="1741" y="567" type="line"></point>
      <point x="1746" y="603"></point>
      <point x="1749" y="640"></point>
      <point x="1749" y="676" type="curve" smooth="yes"></point>
      <point x="1749" y="958"></point>
      <point x="1613" y="1190"></point>
      <point x="1306" y="1190" type="curve" smooth="yes"></point>
      <point x="1145" y="1190"></point>
      <point x="984" y="1121"></point>
      <point x="911" y="970" type="curve"></point>
      <point x="856" y="1154"></point>
      <point x="702" y="1190"></point>
      <point x="529" y="1190" type="curve" smooth="yes"></point>
      <point x="410" y="1190"></point>
      <point x="201" y="1135"></point>
      <point x="109" y="1057" type="curve"></point>
      <point x="176" y="935" type="line"></point>
      <point x="266" y="1001"></point>
      <point x="429" y="1047"></point>
      <point x="539" y="1047" type="curve" smooth="yes"></point>
      <point x="780" y="1047"></point>
      <point x="791" y="924"></point>
      <point x="791" y="713" type="curve" smooth="yes"></point>
      <point x="791" y="665" type="line"></point>
      <point x="711" y="698"></point>
      <point x="573" y="715"></point>
      <point x="487" y="715" type="curve" smooth="yes"></point>
      <point x="251" y="715"></point>
      <point x="43" y="603"></point>
      <point x="43" y="343" type="curve" smooth="yes"></point>
      <point x="43" y="95"></point>
      <point x="196" y="-23"></point>
    </contour>
    <contour>
      <point x="482" y="119" type="curve" smooth="yes"></point>
      <point x="314" y="119"></point>
      <point x="234" y="183"></point>
      <point x="234" y="356" type="curve" smooth="yes"></point>
      <point x="234" y="556"></point>
      <point x="384" y="590"></point>
      <point x="556" y="590" type="curve" smooth="yes"></point>
      <point x="635" y="590"></point>
      <point x="713" y="582"></point>
      <point x="791" y="569" type="curve"></point>
      <point x="791" y="271" type="line"></point>
      <point x="707" y="193"></point>
      <point x="601" y="119"></point>
    </contour>
    <contour>
      <point x="981" y="682" type="line"></point>
      <point x="981" y="685.012138456"></point>
      <point x="981" y="688.013776697"></point>
      <point x="981" y="691.004613557" type="curve" smooth="yes"></point>
      <point x="983" y="900.500386219"></point>
      <point x="1083" y="1057.0"></point>
      <point x="1307" y="1057" type="curve" smooth="yes"></point>
      <point x="1511" y="1057"></point>
      <point x="1581" y="902"></point>
      <point x="1581" y="717" type="curve" smooth="yes"></point>
      <point x="1581" y="682" type="line"></point>
    </contour>
  </outline>
</glyph>
<glyph name="eth" format="1">
  <advance width="1260"></advance>
  <unicode hex="00F0"></unicode>
  <outline>
    <contour>
      <point x="595" y="-20" type="curve" smooth="yes"></point>
      <point x="1021" y="-20"></point>
      <point x="1128" y="324"></point>
      <point x="1128" y="690" type="curve" smooth="yes"></point>
      <point x="1128" y="973"></point>
      <point x="1048" y="1200"></point>
      <point x="882" y="1426" type="curve"></point>
      <point x="1142" y="1503" type="line"></point>
      <point x="1100" y="1593" type="line"></point>
      <point x="814" y="1508" type="line"></point>
      <point x="721" y="1599"></point>
      <point x="633" y="1679"></point>
      <point x="518" y="1743" type="curve"></point>
      <point x="434" y="1641" type="line"></point>
      <point x="515" y="1590"></point>
      <point x="588" y="1528"></point>
      <point x="655" y="1461" type="curve"></point>
      <point x="452" y="1401" type="line"></point>
      <point x="494" y="1311" type="line"></point>
      <point x="729" y="1380" type="line"></point>
      <point x="818" y="1277"></point>
      <point x="895" y="1158"></point>
      <point x="938" y="1028" type="curve"></point>
      <point x="857" y="1129"></point>
      <point x="699" y="1190"></point>
      <point x="573" y="1190" type="curve" smooth="yes"></point>
      <point x="241" y="1190"></point>
      <point x="111" y="870"></point>
      <point x="111" y="584" type="curve" smooth="yes"></point>
      <point x="111" y="275"></point>
      <point x="245" y="-20"></point>
    </contour>
    <contour>
      <point x="591" y="123" type="curve" smooth="yes"></point>
      <point x="335" y="123"></point>
      <point x="293" y="384"></point>
      <point x="293" y="587" type="curve" smooth="yes"></point>
      <point x="293" y="822"></point>
      <point x="342" y="1047"></point>
      <point x="617" y="1047" type="curve" smooth="yes"></point>
      <point x="836" y="1047"></point>
      <point x="944" y="869"></point>
      <point x="944" y="666" type="curve" smooth="yes"></point>
      <point x="944" y="412"></point>
      <point x="906" y="123"></point>
    </contour>
  </outline>
</glyph>
<glyph name="divide" format="1">
  <advance width="1008"></advance>
  <unicode hex="00F7"></unicode>
  <outline>
    <contour>
      <point x="497" y="215" type="curve" smooth="yes"></point>
      <point x="562" y="215"></point>
      <point x="605" y="268"></point>
      <point x="605" y="330" type="curve" smooth="yes"></point>
      <point x="605" y="392"></point>
      <point x="562" y="445"></point>
      <point x="497" y="445" type="curve" smooth="yes"></point>
      <point x="434" y="445"></point>
      <point x="385" y="392"></point>
      <point x="385" y="330" type="curve" smooth="yes"></point>
      <point x="385" y="267"></point>
      <point x="433" y="215"></point>
    </contour>
    <contour>
      <point x="160" y="508" type="line"></point>
      <point x="842" y="508" type="line"></point>
      <point x="842" y="639" type="line"></point>
      <point x="160" y="639" type="line"></point>
    </contour>
    <contour>
      <point x="499" y="700" type="curve" smooth="yes"></point>
      <point x="564" y="700"></point>
      <point x="607" y="753"></point>
      <point x="607" y="815" type="curve" smooth="yes"></point>
      <point x="607" y="877"></point>
      <point x="564" y="930"></point>
      <point x="499" y="930" type="curve" smooth="yes"></point>
      <point x="436" y="930"></point>
      <point x="387" y="877"></point>
      <point x="387" y="815" type="curve" smooth="yes"></point>
      <point x="387" y="752"></point>
      <point x="435" y="700"></point>
    </contour>
  </outline>
</glyph>
<glyph name="oslash" format="1">
  <advance width="1284"></advance>
  <unicode hex="00F8"></unicode>
  <outline>
    <contour>
      <point x="425" y="-198" type="line"></point>
      <point x="491" y="-2" type="line"></point>
      <point x="540" y="-15"></point>
      <point x="591" y="-20"></point>
      <point x="641" y="-20" type="curve" smooth="yes"></point>
      <point x="1002" y="-20"></point>
      <point x="1172" y="247"></point>
      <point x="1172" y="582" type="curve" smooth="yes"></point>
      <point x="1172" y="809"></point>
      <point x="1093" y="1032"></point>
      <point x="880" y="1140" type="curve"></point>
      <point x="947" y="1335" type="line"></point>
      <point x="866" y="1365" type="line"></point>
      <point x="799" y="1170" type="line"></point>
      <point x="748" y="1184"></point>
      <point x="694" y="1190"></point>
      <point x="641" y="1190" type="curve" smooth="yes"></point>
      <point x="281" y="1190"></point>
      <point x="111" y="914"></point>
      <point x="111" y="582" type="curve" smooth="yes"></point>
      <point x="111" y="357"></point>
      <point x="188" y="131"></point>
      <point x="404" y="28" type="curve"></point>
      <point x="337" y="-168" type="line"></point>
    </contour>
    <contour>
      <point x="453" y="169" type="line"></point>
      <point x="322" y="259"></point>
      <point x="293" y="434"></point>
      <point x="293" y="582" type="curve" smooth="yes"></point>
      <point x="293" y="812"></point>
      <point x="370" y="1051"></point>
      <point x="641" y="1051" type="curve" smooth="yes"></point>
      <point x="678" y="1051"></point>
      <point x="716" y="1047"></point>
      <point x="752" y="1035" type="curve"></point>
    </contour>
    <contour>
      <point x="641" y="117" type="curve" smooth="yes"></point>
      <point x="606" y="117"></point>
      <point x="570" y="120"></point>
      <point x="536" y="130" type="curve"></point>
      <point x="831" y="996" type="line"></point>
      <point x="960" y="905"></point>
      <point x="989" y="729"></point>
      <point x="989" y="582" type="curve" smooth="yes"></point>
      <point x="989" y="351"></point>
      <point x="913" y="117"></point>
    </contour>
  </outline>
</glyph>
<glyph name="Dcroat" format="1">
  <advance width="1572"></advance>
  <unicode hex="0110"></unicode>
  <outline>
    <contour>
      <point x="393" y="143" type="line"></point>
      <point x="393" y="764" type="line"></point>
      <point x="627" y="764" type="line"></point>
      <point x="627" y="895" type="line"></point>
      <point x="393" y="895" type="line"></point>
      <point x="393" y="1436" type="line"></point>
      <point x="752" y="1436" type="line" smooth="yes"></point>
      <point x="1141" y="1436"></point>
      <point x="1210" y="1111"></point>
      <point x="1210" y="789" type="curve" smooth="yes"></point>
      <point x="1210" y="465"></point>
      <point x="1145" y="143"></point>
      <point x="752" y="143" type="curve" smooth="yes"></point>
    </contour>
    <contour>
      <point x="199" y="0" type="line"></point>
      <point x="752" y="0" type="line" smooth="yes"></point>
      <point x="1248" y="0"></point>
      <point x="1411" y="338"></point>
      <point x="1411" y="788" type="curve" smooth="yes"></point>
      <point x="1411" y="1231"></point>
      <point x="1245" y="1579"></point>
      <point x="752" y="1579" type="curve" smooth="yes"></point>
      <point x="199" y="1579" type="line"></point>
      <point x="199" y="895" type="line"></point>
      <point x="37" y="895" type="line"></point>
      <point x="37" y="764" type="line"></point>
      <point x="199" y="764" type="line"></point>
    </contour>
  </outline>
</glyph>
<glyph name="dcroat" format="1">
  <advance width="1284"></advance>
  <unicode hex="0111"></unicode>
  <outline>
    <contour>
      <point x="589" y="-20" type="curve" smooth="yes"></point>
      <point x="729" y="-20"></point>
      <point x="870" y="71"></point>
      <point x="953" y="179" type="curve"></point>
      <point x="981" y="0" type="line"></point>
      <point x="1122" y="0" type="line"></point>
      <point x="1122" y="1317" type="line"></point>
      <point x="1245" y="1317" type="line"></point>
      <point x="1245" y="1434" type="line"></point>
      <point x="1122" y="1434" type="line"></point>
      <point x="1122" y="1579" type="line"></point>
      <point x="932" y="1614" type="line"></point>
      <point x="932" y="1434" type="line"></point>
      <point x="563" y="1434" type="line"></point>
      <point x="563" y="1317" type="line"></point>
      <point x="932" y="1317" type="line"></point>
      <point x="932" y="1028" type="line"></point>
      <point x="851" y="1129"></point>
      <point x="694" y="1190"></point>
      <point x="567" y="1190" type="curve" smooth="yes"></point>
      <point x="235" y="1190"></point>
      <point x="105" y="870"></point>
      <point x="105" y="584" type="curve" smooth="yes"></point>
      <point x="105" y="275"></point>
      <point x="239" y="-20"></point>
    </contour>
    <contour>
      <point x="585" y="117" type="curve" smooth="yes"></point>
      <point x="329" y="117"></point>
      <point x="287" y="381"></point>
      <point x="287" y="587" type="curve" smooth="yes"></point>
      <point x="287" y="787"></point>
      <point x="329" y="1047"></point>
      <point x="579" y="1047" type="curve" smooth="yes"></point>
      <point x="709" y="1047"></point>
      <point x="831" y="980"></point>
      <point x="932" y="903" type="curve"></point>
      <point x="932" y="275" type="line"></point>
      <point x="849" y="181"></point>
      <point x="707" y="117"></point>
    </contour>
  </outline>
</glyph>
<glyph name="gcedilla" format="1">
  <advance width="1188"></advance>
  <unicode hex="0123"></unicode>
  <outline>
    <contour>
      <point x="594" y="-427" type="curve" smooth="yes"></point>
      <point x="801" y="-427"></point>
      <point x="1118" y="-372"></point>
      <point x="1118" y="-106" type="curve" smooth="yes"></point>
      <point x="1118" y="293"></point>
      <point x="549" y="210"></point>
      <point x="291" y="210" type="curve"></point>
      <point x="280" y="246"></point>
      <point x="270" y="284"></point>
      <point x="270" y="322" type="curve" smooth="yes"></point>
      <point x="270" y="511"></point>
      <point x="991" y="296"></point>
      <point x="991" y="812" type="curve" smooth="yes"></point>
      <point x="991" y="888"></point>
      <point x="981" y="983"></point>
      <point x="908" y="1026" type="curve"></point>
      <point x="1146" y="1026" type="line"></point>
      <point x="1146" y="1171" type="line"></point>
      <point x="1037" y="1170"></point>
      <point x="940" y="1165"></point>
      <point x="841" y="1114" type="curve"></point>
      <point x="762" y="1175"></point>
      <point x="658" y="1190"></point>
      <point x="561" y="1190" type="curve" smooth="yes"></point>
      <point x="358" y="1190"></point>
      <point x="120" y="1089"></point>
      <point x="120" y="854" type="curve" smooth="yes"></point>
      <point x="120" y="718"></point>
      <point x="188" y="578"></point>
      <point x="317" y="521" type="curve"></point>
      <point x="217" y="506"></point>
      <point x="131" y="424"></point>
      <point x="131" y="320" type="curve" smooth="yes"></point>
      <point x="131" y="235"></point>
      <point x="181" y="154"></point>
      <point x="250" y="107" type="curve"></point>
      <point x="151" y="62"></point>
      <point x="84" y="-12"></point>
      <point x="84" y="-125" type="curve" smooth="yes"></point>
      <point x="84" y="-407"></point>
      <point x="380" y="-427"></point>
    </contour>
    <contour>
      <point x="574" y="-277" type="curve" smooth="yes"></point>
      <point x="449" y="-277"></point>
      <point x="242" y="-285"></point>
      <point x="242" y="-110" type="curve" smooth="yes"></point>
      <point x="242" y="-37"></point>
      <point x="276" y="37"></point>
      <point x="339" y="76" type="curve"></point>
      <point x="661" y="76" type="line" smooth="yes"></point>
      <point x="798" y="76"></point>
      <point x="956" y="65"></point>
      <point x="956" y="-111" type="curve" smooth="yes"></point>
      <point x="956" y="-285"></point>
      <point x="693" y="-277"></point>
    </contour>
    <contour>
      <point x="464" y="552" type="curve"></point>
      <point x="355" y="599"></point>
      <point x="281" y="729"></point>
      <point x="281" y="845" type="curve" smooth="yes"></point>
      <point x="281" y="1009"></point>
      <point x="416" y="1058"></point>
      <point x="557" y="1058" type="curve" smooth="yes"></point>
      <point x="700" y="1058"></point>
      <point x="824" y="1031"></point>
      <point x="824" y="860" type="curve" smooth="yes"></point>
      <point x="824" y="593"></point>
      <point x="687" y="580"></point>
    </contour>
  </outline>
</glyph>
<glyph name="Hbar" format="1">
  <advance width="1608"></advance>
  <unicode hex="0126"></unicode>
  <outline>
    <contour>
      <point x="189" y="0" type="line"></point>
      <point x="383" y="0" type="line"></point>
      <point x="383" y="764" type="line"></point>
      <point x="1215" y="764" type="line"></point>
      <point x="1215" y="0" type="line"></point>
      <point x="1409" y="0" type="line"></point>
      <point x="1409" y="1579" type="line"></point>
      <point x="1215" y="1579" type="line"></point>
      <point x="1215" y="879" type="line"></point>
      <point x="383" y="879" type="line"></point>
      <point x="383" y="1579" type="line"></point>
      <point x="189" y="1579" type="line"></point>
    </contour>
  </outline>
</glyph>
<glyph name="dotlessi" format="1">
  <advance width="660"></advance>
  <unicode hex="0131"></unicode>
  <outline>
    <contour>
      <point x="235" y="0" type="line"></point>
      <point x="417" y="0" type="line"></point>
      <point x="417" y="1169" type="line"></point>
      <point x="235" y="1169" type="line"></point>
    </contour>
  </outline>
</glyph>
<glyph name="ij" format="1">
  <advance width="1056"></advance>
  <unicode hex="0133"></unicode>
  <outline>
    <contour>
      <point x="553" y="-373" type="line"></point>
      <point x="791" y="-315"></point>
      <point x="884" y="-68"></point>
      <point x="884" y="154" type="curve" smooth="yes"></point>
      <point x="884" y="1169" type="line"></point>
      <point x="694" y="1169" type="line"></point>
      <point x="694" y="176" type="line" smooth="yes"></point>
      <point x="694" y="-14"></point>
      <point x="680" y="-147"></point>
      <point x="506" y="-258" type="curve"></point>
    </contour>
    <contour>
      <point x="170" y="0" type="line"></point>
      <point x="352" y="0" type="line"></point>
      <point x="352" y="1169" type="line"></point>
      <point x="170" y="1169" type="line"></point>
    </contour>
    <contour>
      <point x="265" y="1347" type="curve" smooth="yes"></point>
      <point x="330" y="1347"></point>
      <point x="373" y="1400"></point>
      <point x="373" y="1462" type="curve" smooth="yes"></point>
      <point x="373" y="1524"></point>
      <point x="330" y="1577"></point>
      <point x="265" y="1577" type="curve" smooth="yes"></point>
      <point x="202" y="1577"></point>
      <point x="153" y="1524"></point>
      <point x="153" y="1462" type="curve" smooth="yes"></point>
      <point x="153" y="1399"></point>
      <point x="201" y="1347"></point>
    </contour>
    <contour>
      <point x="788" y="1347" type="curve" smooth="yes"></point>
      <point x="853" y="1347"></point>
      <point x="896" y="1400"></point>
      <point x="896" y="1462" type="curve" smooth="yes"></point>
      <point x="896" y="1524"></point>
      <point x="853" y="1577"></point>
      <point x="788" y="1577" type="curve" smooth="yes"></point>
      <point x="725" y="1577"></point>
      <point x="676" y="1524"></point>
      <point x="676" y="1462" type="curve" smooth="yes"></point>
      <point x="676" y="1399"></point>
      <point x="724" y="1347"></point>
    </contour>
  </outline>
</glyph>
<glyph name="kgreenlandic" format="1">
  <advance width="1212"></advance>
  <unicode hex="0138"></unicode>
  <outline>
    <contour>
      <point x="153" y="0" type="line"></point>
      <point x="343" y="0" type="line"></point>
      <point x="343" y="459" type="line"></point>
      <point x="459" y="555" type="line"></point>
      <point x="939" y="0" type="line"></point>
      <point x="1160" y="0" type="line"></point>
      <point x="574" y="648" type="line"></point>
      <point x="1127" y="1169" type="line"></point>
      <point x="902" y="1169" type="line"></point>
      <point x="343" y="627" type="line"></point>
      <point x="343" y="1614" type="line"></point>
      <point x="153" y="1579" type="line"></point>
    </contour>
  </outline>
</glyph>
<glyph name="florin" format="1">
  <advance width="1128"></advance>
  <unicode hex="0192"></unicode>
  <outline>
    <contour>
      <point x="117" y="-340" type="curve" smooth="yes"></point>
      <point x="449" y="-340"></point>
      <point x="497" y="-119"></point>
      <point x="536" y="210" type="curve" smooth="yes"></point>
      <point x="634" y="1034" type="line"></point>
      <point x="982" y="1034" type="line"></point>
      <point x="993" y="1139" type="line"></point>
      <point x="645" y="1139" type="line"></point>
      <point x="663" y="1314.17254367"></point>
      <point x="633" y="1516.0"></point>
      <point x="850" y="1516" type="curve" smooth="yes"></point>
      <point x="909" y="1516"></point>
      <point x="959" y="1480"></point>
      <point x="997" y="1442" type="curve"></point>
      <point x="1073" y="1567" type="line"></point>
      <point x="1013" y="1615"></point>
      <point x="922" y="1659"></point>
      <point x="841" y="1659" type="curve" smooth="yes"></point>
      <point x="537" y="1659"></point>
      <point x="483" y="1406"></point>
      <point x="455" y="1139" type="curve"></point>
      <point x="260" y="1139" type="line"></point>
      <point x="249" y="1034" type="line"></point>
      <point x="444" y="1034" type="line"></point>
      <point x="340" y="138" type="line" smooth="yes"></point>
      <point x="316" y="-87"></point>
      <point x="299" y="-183"></point>
      <point x="147" y="-183" type="curve" smooth="yes"></point>
      <point x="107" y="-183"></point>
      <point x="56" y="-168"></point>
      <point x="-4" y="-133" type="curve"></point>
      <point x="-80" y="-258" type="line"></point>
      <point x="-28" y="-301"></point>
      <point x="46" y="-340"></point>
    </contour>
  </outline>
</glyph>
<glyph name="circumflex" format="1">
  <advance width="936"></advance>
  <unicode hex="02C6"></unicode>
  <outline>
    <contour>
      <point x="125" y="510" type="line"></point>
      <point x="243" y="432" type="line"></point>
      <point x="465" y="819" type="line"></point>
      <point x="687" y="432" type="line"></point>
      <point x="805" y="510" type="line"></point>
      <point x="513" y="964" type="line"></point>
      <point x="417" y="964" type="line"></point>
    </contour>
  </outline>
</glyph>
<glyph name="caron" format="1">
  <advance width="936"></advance>
  <unicode hex="02C7"></unicode>
  <outline>
    <contour>
      <point x="417" y="432" type="line"></point>
      <point x="513" y="432" type="line"></point>
      <point x="805" y="886" type="line"></point>
      <point x="687" y="964" type="line"></point>
      <point x="465" y="577" type="line"></point>
      <point x="243" y="964" type="line"></point>
      <point x="125" y="886" type="line"></point>
    </contour>
  </outline>
</glyph>
<glyph name="breve" format="1">
  <advance width="876"></advance>
  <unicode hex="02D8"></unicode>
  <outline>
    <contour>
      <point x="440" y="889" type="curve" smooth="yes"></point>
      <point x="594" y="889"></point>
      <point x="706" y="1002"></point>
      <point x="706" y="1149" type="curve"></point>
      <point x="579" y="1149" type="line"></point>
      <point x="579" y="1061"></point>
      <point x="522" y="990"></point>
      <point x="438" y="990" type="curve" smooth="yes"></point>
      <point x="355" y="990"></point>
      <point x="293" y="1063"></point>
      <point x="293" y="1149" type="curve"></point>
      <point x="166" y="1149" type="line"></point>
      <point x="166" y="997"></point>
      <point x="284" y="889"></point>
    </contour>
  </outline>
</glyph>
<glyph name="hungarumlaut" format="1">
  <advance width="996"></advance>
  <unicode hex="02DD"></unicode>
  <outline>
    <contour>
      <point x="162" y="328" type="line"></point>
      <point x="576" y="759" type="line"></point>
      <point x="415" y="860" type="line"></point>
      <point x="105" y="354" type="line"></point>
    </contour>
    <contour>
      <point x="474" y="328" type="line"></point>
      <point x="888" y="759" type="line"></point>
      <point x="727" y="860" type="line"></point>
      <point x="417" y="354" type="line"></point>
    </contour>
  </outline>
</glyph>
<glyph name="uni0307" format="1">
  <advance width="660"></advance>
  <unicode hex="0307"></unicode>
  <outline>
    <contour>
      <point x="327" y="-17" type="curve" smooth="yes"></point>
      <point x="392" y="-17"></point>
      <point x="435" y="36"></point>
      <point x="435" y="98" type="curve" smooth="yes"></point>
      <point x="435" y="160"></point>
      <point x="392" y="213"></point>
      <point x="327" y="213" type="curve" smooth="yes"></point>
      <point x="264" y="213"></point>
      <point x="215" y="160"></point>
      <point x="215" y="98" type="curve" smooth="yes"></point>
      <point x="215" y="35"></point>
      <point x="263" y="-17"></point>
    </contour>
  </outline>
</glyph>
<glyph name="uni030F" format="1">
  <advance width="960"></advance>
  <unicode hex="030F"></unicode>
  <outline>
    <contour>
      <point x="439" y="328" type="line"></point>
      <point x="496" y="354" type="line"></point>
      <point x="337" y="965" type="line"></point>
      <point x="105" y="874" type="line"></point>
    </contour>
    <contour>
      <point x="773" y="328" type="line"></point>
      <point x="830" y="354" type="line"></point>
      <point x="671" y="965" type="line"></point>
      <point x="439" y="874" type="line"></point>
    </contour>
  </outline>
</glyph>
<glyph name="uni0311" format="1">
  <advance width="852"></advance>
  <unicode hex="0311"></unicode>
  <outline>
    <contour>
      <point x="180" y="899" type="curve"></point>
      <point x="277" y="899" type="line"></point>
      <point x="277" y="980"></point>
      <point x="339" y="1048"></point>
      <point x="422" y="1048" type="curve" smooth="yes"></point>
      <point x="506" y="1048"></point>
      <point x="563" y="981"></point>
      <point x="563" y="899" type="curve"></point>
      <point x="660" y="899" type="line"></point>
      <point x="660" y="1035"></point>
      <point x="561" y="1139"></point>
      <point x="424" y="1139" type="curve" smooth="yes"></point>
      <point x="285" y="1139"></point>
      <point x="180" y="1039"></point>
    </contour>
  </outline>
</glyph>
<glyph name="quoteleft" format="1">
  <advance width="720"></advance>
  <unicode hex="2018"></unicode>
  <outline>
    <contour>
      <point x="215" y="1033" type="line"></point>
      <point x="496" y="1033" type="line"></point>
      <point x="496" y="1326" type="line"></point>
      <point x="365" y="1326" type="line"></point>
      <point x="364" y="1421"></point>
      <point x="410" y="1456"></point>
      <point x="495" y="1485" type="curve"></point>
      <point x="444" y="1579" type="line"></point>
      <point x="298" y="1537"></point>
      <point x="215" y="1436"></point>
      <point x="215" y="1282" type="curve" smooth="yes"></point>
    </contour>
  </outline>
</glyph>
<glyph name="quoteright" format="1">
  <advance width="672"></advance>
  <unicode hex="2019"></unicode>
  <outline>
    <contour>
      <point x="253" y="1033" type="line"></point>
      <point x="399" y="1075"></point>
      <point x="482" y="1176"></point>
      <point x="482" y="1330" type="curve" smooth="yes"></point>
      <point x="482" y="1579" type="line"></point>
      <point x="201" y="1579" type="line"></point>
      <point x="201" y="1286" type="line"></point>
      <point x="332" y="1286" type="line"></point>
      <point x="333" y="1191"></point>
      <point x="287" y="1156"></point>
      <point x="202" y="1127" type="curve"></point>
    </contour>
  </outline>
</glyph>
<glyph name="quotedblleft" format="1">
  <advance width="984"></advance>
  <unicode hex="201C"></unicode>
  <outline>
    <contour>
      <point x="160" y="1063" type="line"></point>
      <point x="441" y="1063" type="line"></point>
      <point x="441" y="1356" type="line"></point>
      <point x="310" y="1356" type="line"></point>
      <point x="309" y="1452"></point>
      <point x="354" y="1486"></point>
      <point x="440" y="1515" type="curve"></point>
      <point x="389" y="1609" type="line"></point>
      <point x="243" y="1567"></point>
      <point x="160" y="1466"></point>
      <point x="160" y="1312" type="curve" smooth="yes"></point>
    </contour>
    <contour>
      <point x="529" y="1063" type="line"></point>
      <point x="810" y="1063" type="line"></point>
      <point x="810" y="1356" type="line"></point>
      <point x="679" y="1356" type="line"></point>
      <point x="678" y="1452"></point>
      <point x="723" y="1486"></point>
      <point x="809" y="1515" type="curve"></point>
      <point x="758" y="1609" type="line"></point>
      <point x="612" y="1567"></point>
      <point x="529" y="1466"></point>
      <point x="529" y="1312" type="curve" smooth="yes"></point>
    </contour>
  </outline>
</glyph>
<glyph name="quotedblright" format="1">
  <advance width="936"></advance>
  <unicode hex="201D"></unicode>
  <outline>
    <contour>
      <point x="212" y="1033" type="line"></point>
      <point x="358" y="1075"></point>
      <point x="441" y="1176"></point>
      <point x="441" y="1330" type="curve" smooth="yes"></point>
      <point x="441" y="1579" type="line"></point>
      <point x="160" y="1579" type="line"></point>
      <point x="160" y="1286" type="line"></point>
      <point x="291" y="1286" type="line"></point>
      <point x="292" y="1191"></point>
      <point x="246" y="1156"></point>
      <point x="161" y="1127" type="curve"></point>
    </contour>
    <contour>
      <point x="581" y="1033" type="line"></point>
      <point x="727" y="1075"></point>
      <point x="810" y="1176"></point>
      <point x="810" y="1330" type="curve" smooth="yes"></point>
      <point x="810" y="1579" type="line"></point>
      <point x="529" y="1579" type="line"></point>
      <point x="529" y="1286" type="line"></point>
      <point x="660" y="1286" type="line"></point>
      <point x="661" y="1191"></point>
      <point x="615" y="1156"></point>
      <point x="530" y="1127" type="curve"></point>
    </contour>
  </outline>
</glyph>
<glyph name="quotedblbase" format="1">
  <advance width="984"></advance>
  <unicode hex="201E"></unicode>
  <outline>
    <contour>
      <point x="212" y="-272" type="line"></point>
      <point x="358" y="-230"></point>
      <point x="441" y="-129"></point>
      <point x="441" y="25" type="curve" smooth="yes"></point>
      <point x="441" y="274" type="line"></point>
      <point x="160" y="274" type="line"></point>
      <point x="160" y="-19" type="line"></point>
      <point x="291" y="-19" type="line"></point>
      <point x="292" y="-114"></point>
      <point x="246" y="-149"></point>
      <point x="161" y="-178" type="curve"></point>
    </contour>
    <contour>
      <point x="581" y="-272" type="line"></point>
      <point x="727" y="-230"></point>
      <point x="810" y="-129"></point>
      <point x="810" y="25" type="curve" smooth="yes"></point>
      <point x="810" y="274" type="line"></point>
      <point x="529" y="274" type="line"></point>
      <point x="529" y="-19" type="line"></point>
      <point x="660" y="-19" type="line"></point>
      <point x="661" y="-114"></point>
      <point x="615" y="-149"></point>
      <point x="530" y="-178" type="curve"></point>
    </contour>
  </outline>
</glyph>
<glyph name="daggerdbl" format="1">
  <advance width="1200"></advance>
  <unicode hex="2021"></unicode>
  <outline>
    <contour>
      <point x="503" y="0" type="line"></point>
      <point x="694" y="0" type="line"></point>
      <point x="694" y="305" type="line"></point>
      <point x="1020" y="305" type="line"></point>
      <point x="1020" y="444" type="line"></point>
      <point x="694" y="444" type="line"></point>
      <point x="694" y="1020" type="line"></point>
      <point x="1022" y="1020" type="line"></point>
      <point x="1022" y="1161" type="line"></point>
      <point x="696" y="1161" type="line"></point>
      <point x="696" y="1468" type="line"></point>
      <point x="503" y="1468" type="line"></point>
      <point x="503" y="1161" type="line"></point>
      <point x="168" y="1161" type="line"></point>
      <point x="168" y="1020" type="line"></point>
      <point x="503" y="1020" type="line"></point>
      <point x="503" y="444" type="line"></point>
      <point x="168" y="444" type="line"></point>
      <point x="168" y="305" type="line"></point>
      <point x="503" y="305" type="line"></point>
    </contour>
  </outline>
</glyph>
<glyph name="uni203E" format="1">
  <advance width="1008"></advance>
  <unicode hex="203E"></unicode>
  <outline>
    <contour>
      <point x="160" y="122" type="line"></point>
      <point x="842" y="122" type="line"></point>
      <point x="842" y="239" type="line"></point>
      <point x="160" y="239" type="line"></point>
    </contour>
  </outline>
</glyph>
<glyph name="minus" format="1">
  <advance width="1008"></advance>
  <unicode hex="2212"></unicode>
  <outline>
    <contour>
      <point x="160" y="508" type="line"></point>
      <point x="842" y="508" type="line"></point>
      <point x="842" y="639" type="line"></point>
      <point x="160" y="639" type="line"></point>
    </contour>
  </outline>
</glyph>
<glyph name="integral" format="1">
  <advance width="1404"></advance>
  <unicode hex="222B"></unicode>
  <outline>
    <contour>
      <point x="531" y="-524" type="curve" smooth="yes"></point>
      <point x="835" y="-524"></point>
      <point x="888" y="-286"></point>
      <point x="914" y="-34" type="curve" smooth="yes"></point>
      <point x="1040" y="1169" type="line" smooth="yes"></point>
      <point x="1057" y="1332"></point>
      <point x="1027" y="1516"></point>
      <point x="1242" y="1516" type="curve" smooth="yes"></point>
      <point x="1301" y="1516"></point>
      <point x="1351" y="1480"></point>
      <point x="1389" y="1442" type="curve"></point>
      <point x="1465" y="1567" type="line"></point>
      <point x="1405" y="1615"></point>
      <point x="1314" y="1659"></point>
      <point x="1233" y="1659" type="curve" smooth="yes"></point>
      <point x="929" y="1659"></point>
      <point x="876" y="1421"></point>
      <point x="850" y="1169" type="curve" smooth="yes"></point>
      <point x="724" y="-34" type="line" smooth="yes"></point>
      <point x="707" y="-197"></point>
      <point x="737" y="-381"></point>
      <point x="522" y="-381" type="curve" smooth="yes"></point>
      <point x="463" y="-381"></point>
      <point x="413" y="-345"></point>
      <point x="375" y="-307" type="curve"></point>
      <point x="299" y="-432" type="line"></point>
      <point x="359" y="-480"></point>
      <point x="450" y="-524"></point>
    </contour>
  </outline>
</glyph>
<glyph name="notequal" format="1">
  <advance width="912"></advance>
  <unicode hex="2260"></unicode>
  <outline>
    <contour>
      <point x="381" y="98" type="line"></point>
      <point x="450" y="280" type="line"></point>
      <point x="748" y="280" type="line"></point>
      <point x="748" y="411" type="line"></point>
      <point x="494" y="411" type="line"></point>
      <point x="527" y="508" type="line"></point>
      <point x="748" y="508" type="line"></point>
      <point x="748" y="639" type="line"></point>
      <point x="571" y="639" type="line"></point>
      <point x="621" y="788" type="line"></point>
      <point x="527" y="827" type="line"></point>
      <point x="461" y="639" type="line"></point>
      <point x="160" y="639" type="line"></point>
      <point x="160" y="508" type="line"></point>
      <point x="416" y="508" type="line"></point>
      <point x="383" y="411" type="line"></point>
      <point x="160" y="411" type="line"></point>
      <point x="160" y="280" type="line"></point>
      <point x="339" y="280" type="line"></point>
      <point x="287" y="137" type="line"></point>
    </contour>
  </outline>
</glyph>
<glyph name="lozenge" format="1">
  <advance width="1164"></advance>
  <unicode hex="25CA"></unicode>
  <outline>
    <contour>
      <point x="582" y="220" type="line"></point>
      <point x="292" y="663" type="line"></point>
      <point x="582" y="1106" type="line"></point>
      <point x="872" y="663" type="line"></point>
    </contour>
    <contour>
      <point x="582" y="0" type="line"></point>
      <point x="1058" y="663" type="line"></point>
      <point x="582" y="1326" type="line"></point>
      <point x="106" y="663" type="line"></point>
    </contour>
  </outline>
</glyph>
<glyph name="ff" format="1">
  <advance width="1308"></advance>
  <unicode hex="FB00"></unicode>
  <outline>
    <contour>
      <point x="172" y="0" type="line"></point>
      <point x="362" y="0" type="line"></point>
      <point x="362" y="1064" type="line"></point>
      <point x="865" y="1064" type="line"></point>
      <point x="865" y="0" type="line"></point>
      <point x="1055" y="0" type="line"></point>
      <point x="1055" y="1064" type="line"></point>
      <point x="1403" y="1064" type="line"></point>
      <point x="1403" y="1169" type="line"></point>
      <point x="1055" y="1169" type="line"></point>
      <point x="1055" y="1332"></point>
      <point x="1005" y="1516"></point>
      <point x="1220" y="1516" type="curve" smooth="yes"></point>
      <point x="1279" y="1516"></point>
      <point x="1333" y="1480"></point>
      <point x="1375" y="1442" type="curve"></point>
      <point x="1438" y="1567" type="line"></point>
      <point x="1373" y="1615"></point>
      <point x="1277" y="1659"></point>
      <point x="1196" y="1659" type="curve" smooth="yes"></point>
      <point x="892" y="1659"></point>
      <point x="865" y="1421"></point>
      <point x="865" y="1169" type="curve"></point>
      <point x="362" y="1169" type="line"></point>
      <point x="362" y="1332"></point>
      <point x="312" y="1516"></point>
      <point x="527" y="1516" type="curve" smooth="yes"></point>
      <point x="586" y="1516"></point>
      <point x="640" y="1480"></point>
      <point x="682" y="1442" type="curve"></point>
      <point x="745" y="1567" type="line"></point>
      <point x="680" y="1615"></point>
      <point x="584" y="1659"></point>
      <point x="503" y="1659" type="curve" smooth="yes"></point>
      <point x="199" y="1659"></point>
      <point x="172" y="1421"></point>
      <point x="172" y="1169" type="curve"></point>
      <point x="-18" y="1169" type="line"></point>
      <point x="-18" y="1064" type="line"></point>
      <point x="172" y="1064" type="line"></point>
    </contour>
  </outline>
</glyph>
<glyph name="uniFB01" format="1">
  <advance width="1236"></advance>
  <unicode hex="FB01"></unicode>
  <outline>
    <contour>
      <point x="203" y="0" type="line"></point>
      <point x="393" y="0" type="line"></point>
      <point x="393" y="1064" type="line"></point>
      <point x="892" y="1064" type="line"></point>
      <point x="892" y="0" type="line"></point>
      <point x="1074" y="0" type="line"></point>
      <point x="1074" y="1169" type="line"></point>
      <point x="393" y="1169" type="line"></point>
      <point x="393" y="1332"></point>
      <point x="343" y="1516"></point>
      <point x="558" y="1516" type="curve" smooth="yes"></point>
      <point x="617" y="1516"></point>
      <point x="671" y="1480"></point>
      <point x="713" y="1442" type="curve"></point>
      <point x="776" y="1567" type="line"></point>
      <point x="711" y="1615"></point>
      <point x="615" y="1659"></point>
      <point x="534" y="1659" type="curve" smooth="yes"></point>
      <point x="230" y="1659"></point>
      <point x="203" y="1421"></point>
      <point x="203" y="1169" type="curve"></point>
      <point x="8" y="1169" type="line"></point>
      <point x="8" y="1064" type="line"></point>
      <point x="203" y="1064" type="line"></point>
    </contour>
    <contour>
      <point x="987" y="1347" type="curve" smooth="yes"></point>
      <point x="1052" y="1347"></point>
      <point x="1095" y="1400"></point>
      <point x="1095" y="1462" type="curve" smooth="yes"></point>
      <point x="1095" y="1524"></point>
      <point x="1052" y="1577"></point>
      <point x="987" y="1577" type="curve" smooth="yes"></point>
      <point x="924" y="1577"></point>
      <point x="875" y="1524"></point>
      <point x="875" y="1462" type="curve" smooth="yes"></point>
      <point x="875" y="1399"></point>
      <point x="923" y="1347"></point>
    </contour>
  </outline>
</glyph>
<glyph name="uniFB02" format="1">
  <advance width="1260"></advance>
  <unicode hex="FB02"></unicode>
  <outline>
    <contour>
      <point x="203" y="0" type="line"></point>
      <point x="393" y="0" type="line"></point>
      <point x="393" y="1064" type="line"></point>
      <point x="741" y="1064" type="line"></point>
      <point x="741" y="1169" type="line"></point>
      <point x="393" y="1169" type="line"></point>
      <point x="393" y="1448"></point>
      <point x="457" y="1514"></point>
      <point x="671" y="1514" type="curve" smooth="yes"></point>
      <point x="732" y="1514"></point>
      <point x="806" y="1508"></point>
      <point x="894" y="1501" type="curve"></point>
      <point x="894" y="0" type="line"></point>
      <point x="1084" y="0" type="line"></point>
      <point x="1084" y="1614" type="line"></point>
      <point x="932" y="1638"></point>
      <point x="792" y="1657"></point>
      <point x="671" y="1657" type="curve" smooth="yes"></point>
      <point x="386" y="1657"></point>
      <point x="203" y="1553"></point>
      <point x="203" y="1169" type="curve"></point>
      <point x="8" y="1169" type="line"></point>
      <point x="8" y="1064" type="line"></point>
      <point x="203" y="1064" type="line"></point>
    </contour>
  </outline>
</glyph>
<glyph name="fj" format="1">
  <advance width="1308"></advance>
  <outline>
    <contour>
      <point x="771" y="-373" type="line"></point>
      <point x="1009" y="-315"></point>
      <point x="1102" y="-68"></point>
      <point x="1102" y="154" type="curve" smooth="yes"></point>
      <point x="1102" y="1169" type="line"></point>
      <point x="429" y="1169" type="line"></point>
      <point x="429" y="1402"></point>
      <point x="440" y="1529"></point>
      <point x="594" y="1529" type="curve" smooth="yes"></point>
      <point x="636" y="1529"></point>
      <point x="692" y="1508"></point>
      <point x="766" y="1458" type="curve"></point>
      <point x="820" y="1578" type="line"></point>
      <point x="715" y="1638"></point>
      <point x="629" y="1665"></point>
      <point x="559" y="1665" type="curve" smooth="yes"></point>
      <point x="325" y="1665"></point>
      <point x="239" y="1492"></point>
      <point x="239" y="1169" type="curve"></point>
      <point x="44" y="1169" type="line"></point>
      <point x="44" y="1064" type="line"></point>
      <point x="239" y="1064" type="line"></point>
      <point x="239" y="0" type="line"></point>
      <point x="429" y="0" type="line"></point>
      <point x="429" y="1064" type="line"></point>
      <point x="912" y="1064" type="line"></point>
      <point x="912" y="176" type="line" smooth="yes"></point>
      <point x="912" y="-14"></point>
      <point x="898" y="-147"></point>
      <point x="724" y="-258" type="curve"></point>
    </contour>
    <contour>
      <point x="1006" y="1347" type="curve" smooth="yes"></point>
      <point x="1071" y="1347"></point>
      <point x="1114" y="1400"></point>
      <point x="1114" y="1462" type="curve" smooth="yes"></point>
      <point x="1114" y="1524"></point>
      <point x="1071" y="1577"></point>
      <point x="1006" y="1577" type="curve" smooth="yes"></point>
      <point x="943" y="1577"></point>
      <point x="894" y="1524"></point>
      <point x="894" y="1462" type="curve" smooth="yes"></point>
      <point x="894" y="1399"></point>
      <point x="942" y="1347"></point>
    </contour>
  </outline>
</glyph>
<glyph name="lc_ascender_stem" format="1">
  <advance width="1284"/>
  <outline>
    <contour>
      <point x="346" y="0" type="line"/>
      <point x="346" y="0"/>
      <point x="346" y="1616"/>
      <point x="346" y="1616" type="curve"/>
      <point x="160" y="1579" type="line"/>
      <point x="160" y="0" type="line"/>
    </contour>
  </outline>
</glyph>
<glyph name="lc_descender_stem" format="1">
  <advance width="1292"/>
  <outline>
    <contour>
      <point x="350" y="-453" type="line"/>
      <point x="350" y="951" type="line"/>
      <point x="300" y="1169" type="line"/>
      <point x="160" y="1169" type="line"/>
      <point x="160" y="-478" type="line"/>
    </contour>
  </outline>
</glyph>
